<?xml version="1.0" encoding="UTF-8" standalone="no"?>
<!-- Created for Inkscape (http://www.inkscape.org/) -->

<svg
   xmlns:dc="http://purl.org/dc/elements/1.1/"
   xmlns:cc="http://creativecommons.org/ns#"
   xmlns:rdf="http://www.w3.org/1999/02/22-rdf-syntax-ns#"
   xmlns:svg="http://www.w3.org/2000/svg"
   xmlns="http://www.w3.org/2000/svg"
   xmlns:sodipodi="http://sodipodi.sourceforge.net/DTD/sodipodi-0.dtd"
   xmlns:inkscape="http://www.inkscape.org/namespaces/inkscape"
   width="3200"
   height="800"
   id="svg2985"
   version="1.1"
   inkscape:version="0.48.1 r9760">
  <defs
     id="defs2987" />
  <sodipodi:namedview
     id="base"
     pagecolor="#ffffff"
     bordercolor="#666666"
     borderopacity="1.0"
     inkscape:pageopacity="0.0"
     inkscape:pageshadow="2"
     inkscape:zoom="0.35"
     inkscape:cx="1600"
     inkscape:cy="400"
     inkscape:document-units="px"
     inkscape:current-layer="layer1"
     showgrid="false"  />
  <metadata
     id="metadata2990">
    <rdf:RDF>
      <cc:Work
         rdf:about="">
        <dc:format>image/svg+xml</dc:format>
        <dc:type
           rdf:resource="http://purl.org/dc/dcmitype/StillImage" />
        <dc:title />
      </cc:Work>
    </rdf:RDF>
  </metadata>
  <g
     inkscape:label="Layer 1"
     inkscape:groupmode="layer"
     id="layer1"> 
     <g>
<path style="fill:none;stroke:black;stroke-width:2px;stroke-linejoin:round;stroke-linecap:round;" d="M 
1476.7816 133.8483

1486.2239 128.79321

1467.344 139.49925

1458.7651 141.47379

1451.613 147.42712

1441.5559 151.17902

1432.0479 156.11096

1425.5964 163.8239

1416.271 169.9021

1406.5348 175.16989

1397.8325 184.01512

1373.5779 208.21703

1366.366 218.05383

1358.7839 226.71533

1351.6084 236.44615

1345.2764 246.54942

1337.6826 256.48865

1333.1028 268.71625

1327.7739 280.5616

1322.3203 289.05878

1319.4148 299.03668

1315.5664 308.43887

1313.3801 318.53073

1311.1399 328.83527

1307.3734 339.4648

1305.1082 350.03745

1305.2808 360.33954

1302.8965 373.47656

1303.2316 418.0252

1304.1042 431.5733

1306.8628 441.84814

1308.4308 452.7422

1310.3317 464.86078

1313.8666 476.24963

1316.349 488.09445

1321.729 498.8028

1326.3754 509.75763

1330.523 523.11426

1337.7402 535.0753

1345.1846 545.47205

1350.8353 555.82007

1359.4487 564.4387

1372.7148 583.8812

1397.9185 608.4129

1408.7601 618.50775

1419.6716 626.8326

1430.9404 633.04926

1440.4108 640.8237

1452.7749 645.9713

1463.7518 651.8342

1474.5941 658.5065

1485.9896 660.2641

1494.6761 666.1611

1505.081 667.86395

1515.2458 670.20935

1527.0962 673.2532

1540.811 675.5175

1554.8796 677.1011

1570.0881 678.84143

1578.6853 678.11127

1591.7913 679.66315

1600.4454 678.6903

1615.1865 677.20044

1626.6042 675.1289

1638.1278 673.5768

1650.0889 672.59186

1661.0632 668.5637

1672.6732 664.2173

1684.235 662.0974

1694.6874 656.99854

1706.379 652.34827

1717.1532 646.28784

1727.8662 641.20984

1737.5055 635.701

1745.5233 628.876

1755.7036 623.93445

1763.3887 615.6446

1773.9956 608.34283

1798.098 583.277

1807.2065 571.4509

1817.3176 559.5901

1825.6626 548.199

1831.4673 535.59717

1839.4994 523.58203

1842.9678 509.92038

1850.1346 499.9167

1853.0771 488.01157

1857.5775 476.8492

1859.3887 464.49274

1863.6936 453.27145

1863.6677 441.87057

1867.3981 432.0244

1867.3113 418.123

1867.2982 373.60986

1866.9243 359.75958

1863.959 347.0521

1861.2245 332.9162

1858.0181 319.98856

1854.3894 306.78104

1849.9949 294.05362

1843.7446 282.50208

1839.4231 268.5559

1831.0065 256.94244

1824.3623 244.59814

1816.9398 231.82361

1807.412 220.51773

1798.5076 207.37546

1773.1427 183.07144

1761.0793 173.83368

1749.9965 164.38412

1739.1769 157.70764

1727.6869 152.17906

1716.8284 144.36131

1704.8394 139.16019

1691.543 134.01161

1680.164 128.47177

1668.1207 125.788605

1656.9731 121.19466

1644.9573 119.53936

1625.6177 118.57461

1615.7643 112.25243

1599.9355 113.26109

1591.3433 112.6855

1578.0972 113.8055

1569.8827 113.10524

1555.3527 114.668205

1543.6685 114.748276

1531.9824 118.30486

1519.8226 119.26283

1508.4634 122.74999

1498.069 128.7369

" />
</g></g></svg>
