<?xml version="1.0" encoding="UTF-8" standalone="no"?>
<!-- Created for Inkscape (http://www.inkscape.org/) -->

<svg
   xmlns:dc="http://purl.org/dc/elements/1.1/"
   xmlns:cc="http://creativecommons.org/ns#"
   xmlns:rdf="http://www.w3.org/1999/02/22-rdf-syntax-ns#"
   xmlns:svg="http://www.w3.org/2000/svg"
   xmlns="http://www.w3.org/2000/svg"
   xmlns:sodipodi="http://sodipodi.sourceforge.net/DTD/sodipodi-0.dtd"
   xmlns:inkscape="http://www.inkscape.org/namespaces/inkscape"
   width="3200"
   height="800"
   id="svg2985"
   version="1.1"
   inkscape:version="0.48.1 r9760">
  <defs
     id="defs2987" />
  <sodipodi:namedview
     id="base"
     pagecolor="#ffffff"
     bordercolor="#666666"
     borderopacity="1.0"
     inkscape:pageopacity="0.0"
     inkscape:pageshadow="2"
     inkscape:zoom="0.35"
     inkscape:cx="1600"
     inkscape:cy="400"
     inkscape:document-units="px"
     inkscape:current-layer="layer1"
     showgrid="false"  />
  <metadata
     id="metadata2990">
    <rdf:RDF>
      <cc:Work
         rdf:about="">
        <dc:format>image/svg+xml</dc:format>
        <dc:type
           rdf:resource="http://purl.org/dc/dcmitype/StillImage" />
        <dc:title />
      </cc:Work>
    </rdf:RDF>
  </metadata>
  <g
     inkscape:label="Layer 1"
     inkscape:groupmode="layer"
     id="layer1"> 
     <g>
<path style="fill:none;stroke:black;stroke-width:2px;stroke-linejoin:round;stroke-linecap:round;" d="M 
1540.2922 412.90314
1549.5391 423.36584
1565.7651 419.60565
1577.5165 431.59473
1561.8888 435.58676
1546.4424 440.9272
1535.7793 433.1656
1521.7894 437.99448
1510.8573 427.34567
1511.8674 413.54135
1526.5719 423.08435
1526.8711 409.30246
1516.2588 400.6501
1500.0446 392.1174
1511.374 387.38
1505.9386 375.6698
1497.6879 365.2441
1493.0577 380.17603
1481.8855 373.51666
1470.0447 389.29852
1485.1045 391.7923
1500.0454 404.20822
1488.052 410.1739
1497.0757 419.43542
1495.6492 432.0412
1496.387 445.35126
1508.9716 442.57898
1517.5378 454.99072
1530.8787 450.06763
1542.3805 458.1109
1546.5131 472.30786
1555.1526 485.75534
1542.4647 497.44028
1526.5625 492.50818
1536.4309 482.75436
1528.5673 468.94745
1515.7837 481.9681
1501.5377 488.1826
1487.3938 490.8142
1501.3352 503.02832
1514.1553 498.9736
1526.9197 509.5085
1532.2463 524.74176
1525.2279 541.018
1515.2946 529.30304
1511.0865 515.38635
1495.7792 516.8014
1488.4796 502.70984
1479.3838 510.68002
1470.3811 519.89545
1484.3993 524.0444
1481.3909 536.0042
1469.7388 541.2231
1474.0167 555.0896
1468.668 569.2902
1491.5759 561.93317
1490.0302 547.26227
1499.3228 532.6688
1507.52 547.97314
1510.1022 566.40924
1522.4788 557.1614
1537.3445 554.84924
1553.5642 554.39966
1569.2415 551.73553
1560.1116 537.8903
1542.7953 538.8784
1550.9808 524.34924
1544.0327 511.78375
1559.4266 504.80023
1566.334 520.8488
1581.3235 520.3858
1576.5125 536.52155
1587.762 549.07697
1592.6128 532.8204
1604.6226 542.00964
1616.5742 550.62683
1628.7767 560.85846
1631.3333 545.69336
1621.805 533.78094
1609.2496 526.4739
1597.2548 518.01697
1622.1904 516.7843
1636.0562 518.6814
1637.3629 532.0965
1648.7036 539.1688
1652.5476 522.6919
1649.6045 510.28992
1637.6024 502.39935
1623.4485 501.65985
1614.2415 491.36633
1608.8158 508.2103
1598.9015 495.2684
1585.893 485.2439
1589.5474 505.49957
1575.8657 503.53217
1569.7925 489.5914
1572.94 473.64288
1560.8035 465.50787
1557.0365 451.1372
1573.2721 449.30225
1583.3093 460.27902
1594.1942 469.89923
1603.6787 479.50507
1618.5709 477.16266
1619.0583 464.15686
1616.6088 450.6804
1602.9221 457.09857
1591.9697 443.3009
1610.297 438.10712
1604.1536 427.34552
1602.2195 411.91464
1589.8748 424.4188
1583.895 409.42133
1567.0807 405.7033
1552.3556 403.24768
1536.7698 396.9104
1524.2524 390.057
1534.4043 380.0677
1547.7948 384.99606
1561.6129 387.78314
1574.9822 393.85056
1588.185 390.51086
1601.4402 397.436
1614.8822 385.5929
1628.4095 388.28137
1641.3306 387.63766
1627.0164 371.3011
1641.3398 372.18872
1649.1953 360.03598
1661.9896 358.52258
1665.1295 345.42172
1677.5571 337.5602
1676.9001 354.3514
1689.6813 352.99362
1692.5952 339.06174
1676.5907 322.4062
1691.1277 324.6654
1703.6083 318.99377
1716.779 324.44836
1707.6947 336.44385
1703.6321 351.4366
1718.6086 350.0311
1725.8948 337.24588
1731.7344 321.83493
1746.7822 324.69257
1741.8322 338.4711
1750.9954 352.39352
1758.6484 338.02734
1761.6875 321.47693
1775.4166 325.22095
1789.0802 326.4283
1803.0668 326.91705
1817.2512 325.31348
1833.3407 324.16724
1835.5709 338.00626
1852.7129 343.4891
1852.7147 326.42755
1874.3829 329.38818
1899.0383 324.63022
1871.7957 347.28525
1851.4362 359.94308
1832.7421 352.77087
1835.6268 368.82312
1824.4834 383.4214
1807.2927 390.7929
1795.4686 401.6251
1782.6925 397.46783
1767.9813 399.24252
1779.7783 413.33652
1768.2588 426.5611
1751.3342 434.52856
1743.288 445.65796
1730.321 450.43878
1721.1531 458.40717
1727.1487 438.79138
1714.4894 443.6466
1701.0466 444.51743
1701.7742 431.4691
1709.4121 419.2979
1716.7032 430.3226
1724.8033 420.67188
1736.2722 430.45624
1743.3029 418.32886
1754.9692 423.17847
1762.2025 412.52942
1752.4675 404.80902
1740.4585 402.125
1731.81 411.49432
1730.7281 392.2008
1740.0283 385.0022
1752.2751 392.0539
1763.7595 383.79156
1778.5022 383.11475
1792.8568 380.43738
1798.2742 361.08905
1807.8928 374.65784
1820.1249 365.94653
1812.8165 353.59644
1818.2437 339.7899
1800.784 342.68402
1786.5707 346.15466
1773.7882 340.0283
1783.3684 363.46222
1770.3386 370.16345
1768.1401 354.18622
1756.2927 366.20807
1750.1279 377.95224
1740.2134 367.01398
1734.8837 351.91574
1725.8821 364.02197
1711.3705 363.9027
1716.3297 376.55527
1728.5287 378.7917
1715.0035 390.99902
1724.4663 400.7928
1716.0073 407.7284
1703.8184 406.05774
1700.7196 393.331
1703.6394 379.59595
1698.0242 366.69708
1685.4199 368.40015
1690.093 383.39206
1680.3981 395.08813
1690.3042 403.11774
1681.41 414.3001
1695.2296 417.79047
1687.1902 429.7562
1673.6351 431.8879
1659.9688 439.5171
1673.306 448.4809
1686.9513 444.64954
1683.5002 461.33203
1670.6077 465.78476
1659.9619 456.04956
1647.7755 448.69562
1638.5667 439.3233
1646.7921 429.1679
1658.9534 424.86633
1668.8816 417.3469
1668.4371 403.7915
1666.1787 389.68
1675.815 380.5074
1671.5366 368.27173
1658.3911 373.3603
1653.8778 384.68298
1652.104 398.69995
1653.2269 411.65717
1638.7572 416.19403
1634.9989 403.15305
1618.2041 402.2186
1618.6487 417.7586
1629.1677 426.39185
1625.0967 439.47894
1632.9049 455.0569
1634.394 472.42538
1632.2505 487.85406
1647.0505 464.828
1660.4103 475.2562
1647.7728 482.85895
1652.9679 495.74597
1669.204 490.08737
1680.7844 478.86362
1688.4058 494.00592
1680.855 506.40887
1664.9614 506.03516
1669.775 519.83875
1685.4482 522.6964
1697.377 512.10144
1715.2644 515.2881
1707.1198 500.24695
1701.2325 485.38763
1695.8655 472.01974
1696.8555 457.7904
1709.5388 457.76462
1712.9675 473.28436
1718.8802 488.7251
1726.1077 505.2276
1732.0417 525.2837
1738.4768 543.636
1727.63 548.70514
1740.7185 562.8668
1749.0243 580.10986
1756.6077 602.70404
1760.128 625.0354
1741.6075 634.9021
1763.3995 646.01544
1782.9729 681.42346
1762.7764 666.23584
1739.427 654.0338
1719.2471 638.9758
1699.3779 630.1056
1707.7734 615.7731
1725.1523 621.08563
1742.5382 614.3506
1741.3945 594.7522
1726.5022 601.74786
1711.0239 599.058
1694.2026 601.4687
1685.88 615.75006
1677.3926 597.1494
1668.8177 608.4921
1657.1354 595.28784
1643.7838 585.0852
1657.1707 576.70215
1670.5417 582.65076
1686.6877 584.5027
1702.0267 585.1379
1717.5486 582.8821
1732.606 580.474
1724.8324 566.26086
1714.5251 555.43945
1707.8829 567.4365
1695.0858 570.5743
1681.2825 568.8257
1668.1982 565.4039
1675.72 552.65424
1691.06 555.4882
1702.0653 547.97546
1714.2938 541.0894
1720.2941 530.28906
1704.4951 527.3643
1694.3396 535.3949
1683.6426 540.96155
1672.7819 535.207
1660.662 532.7773
1661.5835 548.12976
1655.1726 561.16077
1644.0187 552.59375
1642.047 568.52734
1628.5682 577.5137
1614.072 567.9535
1601.0997 557.9612
1578.2983 562.60016
1562.3555 570.2494
1551.3048 587.0749
1544.2859 570.8218
1527.2517 573.77185
1532.5946 589.9548
1521.0839 605.02454
1513.7715 587.0577
1499.2771 577.4779
1492.9788 592.63403
1481.9841 576.6509
1476.4653 592.6652
1463.3176 605.4918
1454.1495 622.2122
1469.7301 627.84937
1481.8802 609.64355
1504.2808 603.18506
1498.606 617.04456
1483.9772 627.64954
1457.1207 642.905
1438.6836 632.46265
1437.8616 657.3147
1410.4438 675.0185
1418.8518 649.4714
1421.8531 626.62256
1428.5417 606.6013
1445.2556 608.07495
1439.9265 591.15735
1435.5321 576.6313
1460.79 587.2884
1452.0199 574.6037
1454.7865 559.2053
1439.5308 559.7667
1442.6389 543.4404
1457.4818 545.5864
1463.7083 529.2288
1450.5452 530.71954
1452.5911 516.47
1463.4976 508.0077
1453.424 498.84222
1462.9666 488.30554
1473.1311 498.23065
1475.7697 484.58875
1488.7927 478.17172
1501.0995 473.2707
1513.5054 468.0101
1501.9717 457.8457
1488.8788 464.5152
1476.8652 471.09106
1465.4944 474.35876
1473.8347 458.64294
1460.8315 457.67014
1450.8525 447.0974
1435.2207 441.45795
1426.0251 426.971
1409.7583 421.84286
1414.2109 407.81003
1430.2826 406.81995
1438.7483 416.95688
1446.4673 430.46228
1452.1768 415.0603
1463.8741 420.30157
1462.0532 433.74023
1468.8197 445.04028
1485.4712 452.59995
1482.5522 440.56076
1479.635 428.81677
1476.4135 417.12372
1477.0723 403.24854
1463.4648 403.4952
1449.5277 400.73615
1439.7383 392.09076
1435.5288 378.08337
1454.3245 384.11237
1466.4247 374.42664
1473.0319 360.64966
1474.8262 345.24664
1459.2881 357.77563
1447.0637 345.63867
1436.2174 352.92197
1447.8174 367.65207
1427.0374 364.49768
1415.7777 377.35803
1423.0789 392.23773
1404.5662 390.79358
1395.1952 405.70688
1383.4749 390.4931
1367.4894 382.47897
1351.2306 372.79706
1353.9844 356.23236
1333.7542 360.01584
1311.4875 342.07373
1292.4819 327.9483
1323.3898 326.62387
1331.0962 344.3506
1345.0258 333.819
1358.8063 326.36688
1366.7007 345.44577
1376.1885 365.04248
1395.4143 373.80954
1410.4524 360.11768
1394.3047 355.51657
1384.5715 343.03217
1377.6382 326.72968
1397.273 324.73703
1405.1353 339.97626
1422.1772 344.56512
1418.8557 325.2583
1436.4321 329.35477
1452.5209 323.30725
1459.115 340.17737
1468.9214 329.92462
1474.7563 317.3391
1485.1472 330.5058
1496.4672 320.95105
1502.2522 334.7195
1491.3568 344.0298
1486.9296 357.18823
1504.5505 351.52173
1514.0115 363.33997
1520.6487 375.5777
1530.6898 364.62982
1545.1847 367.73138
1553.0669 353.40594
1537.0393 350.86386
1546.0342 337.8327
1548.9924 322.22653
1539.6196 309.2303
1533.188 323.3526
1528.8325 336.16766
1521.7858 351.63715
1515.114 339.34485
1513.6707 323.34592
1522.5664 311.9863
1522.7444 297.53717
1535.2102 295.24356
1542.6223 281.56445
1526.4373 279.15112
1536.5935 264.0588
1551.2476 267.52835
1551.1335 295.38065
1560.6373 282.16687
1568.2346 266.36627
1556.8938 251.08786
1540.1362 245.76486
1550.321 228.98087
1565.0624 234.21707
1575.4104 249.26285
1581.8096 231.48546
1598.8721 229.7299
1588.9353 213.87401
1604.2917 205.74872
1602.6016 188.17876
1583.5393 196.20956
1569.9395 214.66739
1551.8512 209.06487
1564.7024 193.96805
1570.366 175.10905
1584.3247 144.39435
1581.455 126.07594
1590.7947 105.228516
1598.4036 127.565384
1605.8815 148.15372
1607.4961 167.57391
1586.8186 161.02365
1588.2616 178.16924
1619.7532 182.30484
1621.6691 201.43164
1613.8462 221.81052
1631.1909 218.19675
1633.291 236.39342
1613.8357 241.22995
1594.6095 247.50024
1606.8948 261.54984
1611.9683 281.9025
1624.7527 270.73944
1625.7673 254.19885
1644.0513 252.98656
1644.4756 270.43814
1652.9962 285.48804
1656.8281 301.3694
1661.999 315.2386
1646.576 321.9515
1630.3876 318.6142
1619.5234 333.01123
1601.9473 327.81366
1614.4342 314.94293
1640.353 303.656
1633.7035 286.11325
1622.9663 299.07645
1606.2893 297.89856
1597.0529 311.46414
1580.6714 306.15228
1590.3835 293.53796
1595.4752 277.1472
1585.9087 263.67212
1577.9641 281.68652
1568.8859 296.97052
1556.7065 308.6773
1568.5452 317.4711
1584.6848 321.39816
1580.0826 333.67627
1561.6499 330.5619
1565.6099 343.53168
1569.5891 358.77316
1559.7251 370.78064
1575.0159 376.28427
1590.3411 373.80038
1601.9922 380.15475
1612.8127 367.66815
1600.6566 359.2169
1585.1597 360.97775
1582.0879 347.72092
1596.1194 342.19556
1610.7311 346.13623
1623.0127 353.243
1636.5535 354.43585
1635.5249 336.7826
1649.89 343.27097
1660.6809 331.058
" />
</g></g></svg>
