<?xml version="1.0" encoding="UTF-8" standalone="no"?>
<!-- Created for Inkscape (http://www.inkscape.org/) -->

<svg
   xmlns:dc="http://purl.org/dc/elements/1.1/"
   xmlns:cc="http://creativecommons.org/ns#"
   xmlns:rdf="http://www.w3.org/1999/02/22-rdf-syntax-ns#"
   xmlns:svg="http://www.w3.org/2000/svg"
   xmlns="http://www.w3.org/2000/svg"
   xmlns:sodipodi="http://sodipodi.sourceforge.net/DTD/sodipodi-0.dtd"
   xmlns:inkscape="http://www.inkscape.org/namespaces/inkscape"
   width="3200"
   height="800"
   id="svg2985"
   version="1.1"
   inkscape:version="0.48.1 r9760">
  <defs
     id="defs2987" />
  <sodipodi:namedview
     id="base"
     pagecolor="#ffffff"
     bordercolor="#666666"
     borderopacity="1.0"
     inkscape:pageopacity="0.0"
     inkscape:pageshadow="2"
     inkscape:zoom="0.35"
     inkscape:cx="1600"
     inkscape:cy="400"
     inkscape:document-units="px"
     inkscape:current-layer="layer1"
     showgrid="false"  />
  <metadata
     id="metadata2990">
    <rdf:RDF>
      <cc:Work
         rdf:about="">
        <dc:format>image/svg+xml</dc:format>
        <dc:type
           rdf:resource="http://purl.org/dc/dcmitype/StillImage" />
        <dc:title />
      </cc:Work>
    </rdf:RDF>
  </metadata>
  <g
     inkscape:label="Layer 1"
     inkscape:groupmode="layer"
     id="layer1"> 
     <g>
<path style="fill:none;stroke:black;stroke-width:2px;stroke-linejoin:round;stroke-linecap:round;" d="M 
1247.8479 317.07452
1256.2891 310.40826
1247.3308 304.57056
1236.0216 304.6598
1225.1019 307.52945
1221.722 318.2551
1235.344 316.13367
1241.9231 326.34717
1237.8816 335.7685
1227.4402 339.65637
1229.9551 327.22675
1218.2292 329.4777
1214.1288 339.56085
1220.6721 348.0361
1219.9313 358.40292
1219.2197 369.61176
1229.8496 374.5162
1230.8175 363.31555
1230.5553 351.99615
1242.9303 367.71606
1243.6604 356.443
1240.0134 346.09613
1251.8348 347.8244
1248.5972 337.56354
1254.294 328.06656
1259.4554 339.70093
1266.2065 331.72052
1261.7554 319.90582
1266.988 308.66443
1259.4791 299.0074
1250.3799 293.61273
1239.2817 293.28473
1258.2861 285.45905
1246.4718 282.54633
1238.998 275.20868
1232.142 284.0139
1227.1592 295.04773
1207.6987 287.08014
1219.5304 285.38776
1225.7002 274.27798
1213.1112 275.13535
1202.0452 276.70468
1194.8229 289.01642
1203.9375 298.37903
1192.2864 302.5326
1200.4418 311.412
1215.6356 297.51764
1212.3691 308.21796
1210.3845 320.26923
1205.8942 331.7207
1197.9397 322.77887
1192.8936 333.44623
1192.124 345.43335
1202.5214 342.51498
1210.3125 350.74548
1199.7809 354.5749
1208.6128 363.1153
1198.2874 367.54578
1198.7651 380.84482
1208.174 374.79663
1218.7264 381.50897
1209.3712 388.09973
1198.928 394.21042
1198.9485 406.63043
1195.2704 417.7975
1209.0132 424.75946
1207.6648 413.88776
1218.9714 408.06342
1209.6217 400.77045
1220.6544 394.8441
1229.0057 385.86603
1234.5645 394.83966
1229.5884 403.8905
1230.8241 415.3742
1219.6733 419.90732
1230.3536 427.01514
1230.2306 438.7812
1220.3961 432.45898
1210.9696 436.59613
1199.1838 430.07358
1192.6389 439.5954
1201.8374 442.84393
1194.3901 451.19687
1197.2294 470.88525
1193.4124 481.191
1205.7057 480.26794
1209.7252 490.628
1218.6085 481.41306
1230.5315 486.2828
1231.6567 475.62946
1221.573 469.8275
1210.3384 469.3791
1203.6722 459.66437
1209.9877 450.12814
1220.2611 444.90643
1218.6328 458.16675
1231.2073 463.0667
1230.4819 451.17844
1265.6216 441.0754
1275.3029 441.44067
1269.8138 452.2231
1279.4137 458.21835
1271.9043 465.285
1276.2048 476.37558
1283.9406 468.4428
1291.7756 459.5931
1292.9402 448.17206
1282.3135 449.61606
1286.1051 439.84424
1297.5809 437.99582
1297.0645 425.95032
1295.7478 416.25983
1308.2767 422.11896
1308.9575 408.6014
1295.3953 404.4854
1287.3424 410.01474
1289.345 394.81775
1286.8159 383.39734
1278.6073 392.42783
1281.4183 401.82373
1269.5635 402.00305
1276.4089 411.91913
1272.6748 421.13208
1284.5114 420.5509
1288.6001 430.32764
1278.8363 431.00537
1267.7362 430.9666
1260.8168 423.69702
1265.1924 412.722
1257.4349 406.0064
1259.333 396.0943
1267.682 391.07037
1266.1396 381.1208
1257.6577 385.17477
1249.0851 387.8541
1250.4904 375.73895
1260.6674 372.2768
1253.0217 364.9344
1256.7474 356.40707
1264.9235 350.7603
1271.6904 342.7655
1275.4551 354.09106
1265.9153 362.3027
1271.4221 372.36823
1275.7574 382.5385
1276.6777 364.17664
1283.0376 372.91562
1321.6309 373.06165
1322.4082 383.60275
1331.7755 378.09393
1329.0393 366.32736
1335.3586 358.33722
1339.3076 370.2286
1345.5859 361.48218
1353.8302 352.70407
1363.2091 359.6369
1374.9808 358.29184
1377.9727 346.2994
1366.2134 348.7756
1357.8901 341.4502
1346.1155 341.85382
1341.7634 351.04184
1331.6304 345.10303
1337.16 334.64453
1349.4062 331.80923
1339.3351 323.45935
1342.7778 311.29144
1351.4875 320.35568
1360.0917 329.6551
1369.6907 337.7767
1372.064 326.5243
1380.9683 333.98502
1389.8032 342.41266
1383.7811 322.29736
1394.9213 317.57758
1385.8339 310.85562
1374.2218 314.73083
1363.1611 317.2718
1354.2278 308.52603
1365.0332 304.93985
1376.6396 303.39746
1385.4282 297.132
1394.5925 288.81778
1380.8883 286.57214
1371.2366 294.33496
1367.3885 283.16342
1357.845 293.86963
1346.176 299.1159
1347.1918 286.7484
1356.52 279.49518
1376.3683 275.9208
1388.2444 277.21875
1398.8965 275.77567
1407.1489 285.0321
1405.3479 298.11325
1395.2322 302.59314
1404.9452 311.62967
1414.8494 320.4499
1413.2577 333.70477
1412.0841 346.18185
1404.0562 325.78568
1392.9806 330.48273
1402.0637 339.46198
1397.7496 351.58298
1406.4613 356.3757
1409.6821 367.09583
1397.571 364.3758
1387.0757 354.35553
1385.1814 365.5426
1373.261 370.33484
1361.8787 374.5838
1355.4487 364.9123
1349.9167 372.88855
1342.5842 380.7514
1353.3362 383.8227
1345.6436 391.08093
1333.7473 388.99323
1325.0342 394.36176
1317.3981 401.9653
1323.2761 411.8912
1315.0027 416.2671
1325.2043 423.00742
1316.8796 429.3626
1307.4434 433.06052
1307.9606 443.21103
1301.9342 451.72934
1312.3334 453.94336
1304.4232 462.87048
1306.2522 475.27252
1295.9114 471.1883
1288.4143 479.01886
1280.4119 487.5468
1290.6686 491.3548
1299.4133 485.22852
1309.8641 487.0439
1320.0682 491.10007
1317.1987 478.04016
1325.7605 468.96222
1314.5273 466.46347
1321.7731 457.21716
1331.8092 458.66574
1337.1316 449.33777
1327.1304 446.14337
1317.8782 441.77487
1327.5662 434.71957
1337.7462 438.32117
1336.9686 427.09827
1333.85 416.49545
1329.9432 403.80035
1339.6151 398.65405
1339.108 408.51562
1344.9968 417.68182
1349.5635 406.61044
1370.7019 396.60406
1380.8926 395.0276
1373.978 383.77914
1382.2446 376.7025
1386.9971 386.08334
1392.1814 396.70038
1403.2812 397.48053
1398.4794 386.1814
1392.8259 375.7103
1403.3656 375.7811
1414.146 377.6284
1409.9117 388.14047
1414.816 398.77643
1407.8306 408.1445
1396.6667 409.9549
1385.8105 405.01755
1375.0317 408.46713
1373.1183 419.77386
1373.0579 432.13168
1384.3105 426.67123
1385.4127 416.19336
1395.6385 421.35095
1403.5193 430.6286
1407.4971 418.58264
1414.8885 427.68185
1410.2532 439.78394
1399.5273 444.4673
1400.2241 456.3916
1389.2114 458.61133
1387.2947 448.10754
1392.7703 434.73267
1382.628 437.91113
1373.6431 446.0066
1375.9121 458.02362
1372.3867 470.08456
1384.7158 468.87228
1397.8547 467.82745
1393.7207 478.47308
1381.7133 479.9171
1371.0083 482.6778
1378.1832 491.7126
1389.6643 488.97253
1401.062 489.5794
1412.5293 489.6314
1405.6956 477.8908
1409.9645 464.62668
1411.0532 452.0606
1447.3408 450.28244
1451.4779 459.59143
1460.9491 465.7933
1467.1805 474.91534
1457.1737 479.15085
1465.14 488.0029
1475.6616 482.47543
1478.066 492.994
1489.5024 491.45636
1500.1525 494.79132
1498.8676 481.30573
1487.2732 480.2154
1500.8092 469.12787
1489.6548 469.10785
1478.2666 471.62024
1470.7542 462.09824
1460.573 452.91977
1471.9009 451.09274
1474.8357 439.3584
1463.9069 440.96277
1454.4814 442.78815
1455.3573 431.19028
1459.0286 420.2757
1475.6522 406.1756
1477.7385 378.86273
1466.7632 375.80396
1462.7478 364.947
1470.9221 357.5737
1475.7672 366.931
1486.0387 369.7839
1497.4536 370.66388
1516.3088 366.28696
1505.4297 363.14832
1493.1963 359.6773
1482.7501 355.37006
1473.0126 346.5114
1483.7917 342.54303
1493.3164 347.40903
1503.5499 351.3523
1503.2832 338.46234
1513.0609 332.53613
1514.5652 343.94812
1514.8823 354.54062
1524.7749 359.12573
1527.2473 347.09857
1524.8557 334.39874
1536.0703 337.23788
1540.5304 349.02524
1535.6952 358.96542
1546.384 361.01303
1543.41 371.2324
1549.0406 382.43527
1546.719 393.8755
1542.4841 404.74005
1550.9144 412.88257
1550.522 423.38913
1537.9453 415.3722
1525.9695 414.0824
1531.8423 405.04077
1536.2773 394.44418
1525.2993 394.37363
1519.9114 403.5498
1513.4495 392.68283
1508.1093 401.7544
1497.5873 403.44162
1486.8217 404.9455
1481.975 416.1655
1472.3604 418.56686
1466.2318 429.0449
1477.5056 428.37814
1487.1666 425.54608
1492.5349 414.23093
1503.2728 413.25903
1513.8481 412.2481
1517.5839 421.27954
1507.0724 424.10956
1497.2087 423.0986
1496.2935 432.9676
1486.1064 437.17148
1494.0814 445.82727
1483.5034 448.8276
1482.1423 460.16248
1492.995 457.7231
1504.1724 457.51044
1512.3733 464.81415
1511.4922 476.59717
1508.8635 487.30078
1520.623 487.3884
1528.2476 480.12994
1522.0139 472.74692
1523.4802 462.64716
1532.0961 456.2345
1534.6494 467.57468
1537.844 478.18658
1546.7498 469.2883
1550.6892 481.54553
1562.908 485.58533
1576.1512 484.37714
1583.494 491.36816
1591.6348 484.51068
1629.1637 476.30084
1635.2698 486.82187
1647.5815 482.71396
1639.3665 473.14844
1630.61 464.08936
1632.4678 451.85968
1644.4078 448.2319
1655.5033 445.45065
1652.7341 457.08493
1641.6862 460.71057
1650.9199 469.74518
1659.529 478.14572
1658.9048 490.22382
1671.1746 487.46884
1672.0111 474.9609
1673.1824 461.94147
1662.4304 465.67682
1664.1166 453.80914
1674.1609 448.74396
1665.6183 440.04575
1658.7256 431.6229
1648.745 435.6709
1637.3086 438.5964
1631.0505 426.97223
1591.0784 435.8944
1591.6074 448.83948
1581.0698 452.92596
1589.5286 462.03406
1584.4968 474.5772
1577.7173 464.80334
1570.975 455.8032
1565.8345 464.49652
1571.2218 475.14514
1558.9475 473.48276
1554.648 461.45676
1560.437 452.69748
1543.9269 457.9109
1540.7382 446.97446
1550.3856 447.45447
1550.502 435.47302
1560.7817 440.25644
1571.0876 445.27612
1581.3628 441.62033
1589.848 423.1563
1583.5596 414.3524
1572.8876 420.35986
1581.1516 429.64084
1571.3188 433.5671
1561.49 427.66135
1562.1356 415.48776
1553.4376 402.76364
1563.879 404.18585
1569.439 393.9853
1574.97 407.15033
1588.0302 403.0672
1580.0317 395.0373
1573.7349 382.92502
1557.5674 392.2513
1562.2935 381.92627
1554.6863 372.49728
1557.3763 362.0288
1565.6732 357.14166
1552.5234 352.23434
1549.865 340.6297
1561.3914 345.55185
1573.2849 348.21356
1583.586 352.5901
1576.0994 361.78842
1567.225 370.46155
1579.479 373.5805
1587.7357 365.01755
1591.6093 377.0879
1584.2485 384.7619
1592.6278 392.25278
1632.4199 389.9084
1636.2393 403.655
1643.7932 394.49097
1652.9009 386.72653
1642.0088 381.89816
1630.7479 376.70837
1641.1116 369.30685
1630.6031 363.11377
1641.1061 356.42245
1630.1226 349.9967
1630.4873 336.55075
1640.8496 343.5166
1651.7507 350.1262
1652.1436 362.89084
1661.6907 356.29956
1661.376 344.0075
1651.2776 337.29968
1661.4862 331.61395
1652.3726 324.4553
1641.1012 329.674
1630.7588 322.2244
1643.5137 315.91083
1633.308 309.66068
1631.8875 298.08603
1630.6296 285.32568
1625.8975 273.67847
1638.1779 275.6739
1641.256 290.31473
1649.3975 277.81445
1661.4293 276.13028
1673.4219 282.6443
1671.5349 294.95526
1662.8788 287.39587
1652.0002 290.40927
1645.3062 302.5974
1659.6387 299.46622
1669.5131 306.6292
1654.9364 310.8511
1664.4066 317.983
1672.9812 326.4456
1672.4547 338.17923
1672.5133 350.22763
1672.1223 361.64868
1674.5985 372.90845
1689.844 377.91904
1683.5293 386.23956
1693.6448 390.72845
1694.7815 401.539
1685.1484 398.37225
1675.1157 395.33847
1677.5022 407.91986
1688.1677 410.38327
1679.8157 419.7279
1668.9441 414.36646
1666.8613 402.81332
1671.1838 383.93005
1662.8992 368.41257
1651.968 374.34247
1662.0255 379.5538
1663.6736 391.33234
1654.644 398.9503
1658.0764 410.9616
1647.5427 407.26804
1640.2867 416.25177
1629.206 414.38165
1642.1185 426.92584
1650.8766 421.09265
1661.318 421.3492
1671.325 427.47922
1676.2795 438.07465
1683.6171 431.12744
1704.5471 436.28625
1710.5186 425.91406
1716.4224 433.9079
1725.3734 440.99756
1713.4758 443.84082
1711.1963 454.19257
1722.1401 451.6361
1732.4131 454.26892
1726.8398 462.53268
1716.0244 463.58643
1722.8625 472.6522
1726.1089 482.7646
1737.1934 483.292
1750.5857 484.49902
1762.7865 485.3863
1775.0361 485.86505
1768.0894 474.96796
1757.1461 473.22815
1745.164 473.99387
1733.4453 471.86517
1739.3723 463.9907
1750.4182 463.6089
1761.1218 461.8092
1755.4987 451.3645
1744.0541 453.61536
1747.1649 442.7429
1735.9517 445.3405
1736.1338 435.38892
1746.3671 431.53134
1786.2577 428.05774
1786.9177 416.57324
1789.3135 404.85535
1794.5366 392.71295
1800.2081 401.62927
1798.0045 412.99158
1797.0957 424.19604
1795.4204 435.43137
1794.1963 446.29236
1805.3196 440.8022
1806.9111 430.5152
1808.4562 419.2077
1808.9861 408.8741
1810.4769 399.2352
1820.51 400.47156
1829.9331 399.3607
1835.7341 390.57675
1833.6519 381.15887
1826.3527 376.18713
1826.0541 367.2022
1816.5406 367.48923
1817.474 378.21115
1824.8755 388.51117
1815.0544 390.06992
1804.2634 390.82346
1790.0474 382.33554
1799.2927 381.23068
1809.3652 381.46228
1807.124 371.66855
1794.9836 371.57504
1763.6497 348.60187
1757.8933 361.19177
1746.7246 361.84286
1741.303 370.723
1734.5596 378.7365
1729.946 368.9568
1734.8745 359.46564
1722.4387 359.3773
1712.3696 362.38803
1718.5527 370.71326
1723.1405 379.4077
1728.3652 388.0737
1724.9673 400.21454
1733.1365 408.12646
1729.3893 417.6117
1737.327 424.37314
1726.7134 429.1538
1719.366 421.63995
1720.4775 410.58862
1709.8743 414.2566
1701.3748 424.43393
1690.4913 421.37048
1698.6902 413.47528
1704.476 404.44116
1713.6664 401.36288
1718.234 391.25763
1711.7273 382.4271
1705.602 392.55103
1700.7461 381.90988
1707.3494 372.30365
1696.8677 370.77292
1701.6265 361.25342
1709.3484 352.94568
1717.1478 347.9574
1723.6101 337.84003
1734.1113 340.20096
1744.1517 337.6297
1728.4377 349.73724
1741.5902 349.92902
1752.7781 351.92737
1753.6951 341.06976
1764.1614 337.20294
1775.3 336.3289
1801.3428 363.13672
1810.869 358.33234
1822.1501 355.9034
1822.859 343.68555
1832.5874 338.25522
1845.5762 332.59045
1842.4034 344.0106
1832.8107 349.78894
1832.2631 359.72003
1836.7733 369.5206
1843.0345 378.09894
1847.2012 367.19617
1854.2622 360.91083
1841.9512 357.55417
1850.1978 351.12018
1854.4648 341.02103
1861.5896 351.6655
1864.8662 362.70395
1874.8723 361.94122
1884.5692 365.20514
1889.2437 374.51477
1895.7115 362.404
1900.6187 373.66205
1908.6746 366.2402
1906.9502 356.1939
1897.369 350.58847
1884.5441 353.80188
1873.0144 351.57602
1866.4506 340.7348
1878.6765 341.38144
1884.9932 331.4452
1889.3746 343.87302
1896.5656 335.42664
1905.25 342.19284
1914.0664 348.1046
1918.7732 358.12067
1920.417 369.2147
1930.3362 373.46484
1922.2678 380.97418
1912.1194 377.1189
1914.8113 389.4116
1906.9552 397.99554
1918.5021 401.2684
1912.884 411.05173
1903.202 409.2234
1895.26 403.4808
1896.7327 393.28766
1904.8489 385.213
1894.1453 383.45538
1885.0381 399.80173
1873.8523 401.89032
1862.5533 401.26758
1876.4553 412.86066
1885.9395 410.30322
1894.7822 415.83432
1905.727 421.06964
1916.5576 422.7342
1928.3138 423.67352
1935.8292 415.68097
1924.1115 413.30795
1930.0453 404.4448
1935.4186 394.95956
1925.4534 392.6483
1934.2632 383.61414
1970.3989 375.00177
1982.2129 375.58054
1994.0366 376.9859
1990.7076 365.8028
2001.9839 366.83844
2001.199 354.5995
1988.8606 353.78357
1979.0609 362.58603
1967.967 362.14767
1965.828 348.8929
1976.8518 348.8589
1977.993 335.86127
1987.5745 342.18103
1999.9639 343.34338
2008.1469 334.896
2012.4163 344.92477
2012.9746 356.13608
2013.5996 367.00653
2006.3542 377.60828
2011.397 449.86972
2013.0874 463.29303
2001.5239 458.78815
1996.5096 448.16693
1980.8063 448.68555
1987.8422 457.06946
1991.9832 468.8827
2003.425 472.53925
2013.7798 476.22165
2017.5219 489.48846
2005.1495 486.41562
1993.9346 482.27686
1982.712 478.25104
1981.7428 489.78683
1968.0781 491.58936
1971.3247 480.87054
1968.3221 469.93527
1979.4617 466.02853
1971.2179 458.33286
1967.4196 447.718
1940.3374 427.88776
1916.6299 448.75146
1908.7693 458.54718
1896.0894 460.11484
1895.2035 425.38217
1883.7755 422.17706
1871.5 422.89636
1859.9645 421.95428
1866.1467 411.7295
1855.3 411.5202
1851.9006 402.07272
1841.1825 401.18723
1843.7438 411.63635
1848.4822 420.71796
1837.7695 422.4077
1837.2041 436.2307
1827.1062 440.3037
1827.3717 430.21613
1827.4304 419.58405
1832.4277 410.0201
1820.1995 411.74338
1817.4164 425.1798
1816.6245 437.9328
1823.3605 450.53546
1828.9182 459.10138
1834.3009 448.14905
1840.2837 456.66718
1835.8583 467.5923
1830.8787 477.84775
1823.5211 470.28122
1816.9021 461.58688
1813.0474 450.14206
1803.8329 451.87128
1795.2637 458.2606
1806.21 462.7619
1811.7556 472.89624
1819.854 481.87842
1829.6721 489.69464
1840.8113 481.89523
1841.4077 493.30527
1851.8995 488.56442
1864.1375 491.53516
1871.6758 483.40594
1878.5244 493.3026
1885.0841 482.79266
1892.0632 490.91586
1910.8246 481.8735
1922.1361 478.41956
1930.1763 469.31738
1921.8763 460.21692
1915.1571 468.73303
1903.6682 469.85764
1898.8196 480.77783
1891.113 471.89844
1883.4883 462.93564
1878.2755 473.0902
1870.1823 463.9834
1866.7721 473.98337
1857.9229 479.26154
1847.2485 473.10358
1858.0474 466.24518
1849.0487 461.34473
" />
</g></g></svg>
