<?xml version="1.0" encoding="UTF-8" standalone="no"?>
<!-- Created for Inkscape (http://www.inkscape.org/) -->

<svg
   xmlns:dc="http://purl.org/dc/elements/1.1/"
   xmlns:cc="http://creativecommons.org/ns#"
   xmlns:rdf="http://www.w3.org/1999/02/22-rdf-syntax-ns#"
   xmlns:svg="http://www.w3.org/2000/svg"
   xmlns="http://www.w3.org/2000/svg"
   xmlns:sodipodi="http://sodipodi.sourceforge.net/DTD/sodipodi-0.dtd"
   xmlns:inkscape="http://www.inkscape.org/namespaces/inkscape"
   width="3200"
   height="800"
   id="svg2985"
   version="1.1"
   inkscape:version="0.48.1 r9760">
  <defs
     id="defs2987" />
  <sodipodi:namedview
     id="base"
     pagecolor="#ffffff"
     bordercolor="#666666"
     borderopacity="1.0"
     inkscape:pageopacity="0.0"
     inkscape:pageshadow="2"
     inkscape:zoom="0.35"
     inkscape:cx="1600"
     inkscape:cy="400"
     inkscape:document-units="px"
     inkscape:current-layer="layer1"
     showgrid="false"  />
  <metadata
     id="metadata2990">
    <rdf:RDF>
      <cc:Work
         rdf:about="">
        <dc:format>image/svg+xml</dc:format>
        <dc:type
           rdf:resource="http://purl.org/dc/dcmitype/StillImage" />
        <dc:title />
      </cc:Work>
    </rdf:RDF>
  </metadata>
  <g
     inkscape:label="Layer 1"
     inkscape:groupmode="layer"
     id="layer1"> 
     <g>
<path style="fill:none;stroke:black;stroke-width:2px;stroke-linejoin:round;stroke-linecap:round;" d="M 
1418.4861 244.15326
1405.7444 240.68797
1390.1141 220.54633
1389.6904 203.73804
1401.332 210.28375
1406.5166 196.47278
1418.0991 187.12234
1427.603 175.35796
1439.075 166.8404
1450.6609 157.88629
1462.8628 149.11032
1475.4688 141.35405
1488.8672 134.74701
1498.2258 121.07393
1505.0206 133.91257
1515.0791 123.39871
1529.4396 121.23633
1544.029 118.510826
1558.3335 115.03259
1573.224 114.17441
1588.1996 112.80095
1603.5409 113.65604
1618.0266 115.434586
1632.7072 117.421875
1646.7402 121.53932
1661.2678 124.98126
1674.493 130.24765
1688.1477 136.76184
1702.1163 141.72131
1714.1163 150.93552
1727.8279 159.8374
1739.5457 170.3343
1750.9961 181.36545
1763.1453 191.72641
1773.9053 203.52637
1781.8777 216.98572
1791.4144 230.06622
1797.4016 212.2235
1790.492 198.39691
1778.854 186.56352
1767.2723 174.58153
1755.1792 164.20717
1743.5931 152.75853
1729.4113 143.48517
1716.7017 132.61725
1702.3016 123.93295
1687.3906 119.71529
1673.6787 111.85015
1658.121 109.06874
1643.6453 103.86157
1628.0953 101.985596
1612.7207 99.396545
1596.7864 99.02926
1580.1552 98.58873
1564.568 99.94604
1549.1445 101.26404
1534.5708 104.8013
1519.9324 107.392654
1504.4695 109.099266
1485.2125 116.913666
1473.4 125.455246
1459.8347 132.40239
1447.468 141.61012
1435.3135 150.62491
1423.2324 159.04974
1413.036 170.02716
1402.7448 180.18616
1390.3704 189.7616
1376.0509 205.72656
1373.9025 220.54185
1365.1704 233.22046
1357.7246 247.10724
1352.8899 262.5715
1349.5165 277.6539
1344.1814 292.3501
1341.2455 306.97882
1339.1274 322.00504
1338.9038 337.21686
1335.1793 351.85345
1336.8972 373.60297
1342.2781 386.99896
1344.4722 400.4953
1348.6643 414.42084
1352.0433 428.30792
1357.8523 441.59375
1363.4949 454.69724
1369.8564 467.38315
1376.8517 478.87265
1384.237 489.5925
1395.413 479.9757
1387.639 467.8916
1379.7983 455.94687
1374.157 442.85657
1368.4207 429.9636
1364.6184 416.72116
1360.8064 403.3475
1358.9302 389.33313
1353.8445 375.8979
1357.6287 361.84485
1343.8964 362.1529
1351.9478 347.57275
1354.5074 332.6502
1354.6475 317.8131
1358.0201 303.58344
1360.6438 289.0645
1365.5068 274.59802
1368.9316 259.9605
1375.6758 246.85434
1382.8711 233.91974
1408.922 254.9547
1424.5548 255.44627
1432.2919 244.31573
1440.3375 255.63138
1445.7656 242.08298
1461.995 242.62712
1453.6797 251.9721
1452.8823 263.9316
1440.9447 270.07495
1440.7532 284.45532
1441.032 298.56888
1453.1655 303.2559
1455.4884 314.60934
1451.6995 324.5595
1442.1409 312.78555
1439.9336 326.8642
1439.7722 341.1223
1451.5935 335.77988
1464.1348 339.21164
1464.7784 325.33826
1476.2766 332.44568
1477.0756 318.79092
1466.5459 310.79822
1477.69 304.6914
1489.0515 298.02972
1500.7023 292.0575
1476.9395 291.26416
1465.1892 297.52924
1452.8038 290.63998
1452.5686 277.46994
1464.8317 283.94537
1476.8372 277.748
1488.5598 284.10895
1499.9846 278.65717
1500.7899 266.01523
1496.7854 254.65878
1483.309 255.00375
1488.5328 269.08514
1476.0011 264.96283
1464.322 270.22556
1466.8887 255.82848
1475.5 244.17212
1489.9469 242.6182
1504.7268 243.34656
1512.1216 254.56407
1519.9604 243.32416
1526.6261 255.9964
1534.6528 244.56488
1542.3414 256.5119
1556.6394 256.57092
1549.6406 243.58347
1565.2959 242.27478
1571.7704 254.29004
1567.2659 266.08246
1582.6609 265.84174
1582.1388 246.98387
1595.7395 246.26396
1609.4214 253.11148
1595.0198 259.70673
1596.4287 274.97906
1609.254 266.78012
1623.393 259.24365
1636.659 276.16864
1623.5426 272.16986
1610.7281 280.69733
1599.739 291.69296
1586.021 283.6825
1573.1346 278.11618
1573.2878 292.61078
1573.7686 306.90472
1586.8394 299.2354
1599.2845 308.04675
1586.3173 314.95398
1597.7188 324.5265
1610.756 320.02924
1612.958 306.3048
1614.1132 293.74976
1625.4226 314.55554
1627.8024 300.7317
1626.5579 286.3517
1640.8704 293.10724
1640.9434 308.83502
1636.6726 323.0976
1633.3342 337.56485
1622.2227 329.01758
1608.7322 335.39227
1584.9744 330.43698
1572.826 321.38867
1571.6942 336.2274
1582.4108 345.43173
1596.078 341.01532
1619.8931 344.26303
1607.3295 351.69495
1593.3418 356.39316
1579.1073 358.93433
1567.369 350.35822
1555.0138 356.61578
1541.8201 360.37073
1527.5459 360.16904
1532.108 372.60938
1518.4287 372.56708
1513.8315 360.2291
1503.3689 371.8111
1500.6877 358.8974
1499.9584 345.90805
1500.1462 332.86047
1500.6697 319.5497
1500.6125 305.8428
1488.9635 312.25195
1488.546 325.94614
1487.9862 339.42218
1476.1023 346.22314
1464.6893 353.3773
1465.0775 367.1239
1465.2141 380.91852
1477.2711 373.40106
1476.895 360.005
1488.2529 352.9571
1489.6163 366.43805
1489.775 379.24237
1500.7695 386.04938
1489.0168 392.8635
1477.2191 386.83234
1477.3645 400.1007
1478.1594 413.12494
1489.5488 406.4371
1500.63 399.71185
1501.7505 413.53305
1500.3591 427.63513
1490.3833 419.70746
1480.1473 426.077
1489.3347 434.73297
1500.9827 441.4404
1570.3269 445.4546
1566.5674 429.68637
1563.6165 413.95685
1576.5667 418.67426
1586.5623 408.69785
1573.8733 401.75305
1559.8148 399.34296
1565.8115 383.79816
1551.8363 388.21356
1542.5234 378.54968
1553.9929 371.9666
1566.9149 367.31433
1579.8203 374.2613
1579.0215 388.25067
1590.3197 395.3519
1592.9623 378.8271
1606.4933 380.5996
1603.0845 394.1369
1618.3197 391.50327
1627.1322 406.3934
1629.6481 421.41647
1613.1348 403.86642
1600.6014 410.62585
1615.4879 417.32648
1618.002 431.74155
1631.422 436.1164
1635.5881 449.74127
1639.8104 463.30096
1621.1367 446.66882
1607.4855 442.35068
1604.1974 426.60864
1590.5688 423.07773
1580.1854 434.1678
1594.0789 438.22046
1597.7952 453.94797
1584.3682 449.54724
1575.59 460.96106
1588.589 465.6681
1578.7488 476.83954
1593.019 481.10687
1584.2386 491.34723
1596.8491 498.48935
1611.7147 499.22986
1606.1055 485.40497
1602.0607 469.55536
1611.3618 457.8341
1625.3882 460.99786
1615.4674 472.8708
1620.7719 486.98218
1627.044 500.05225
1643.3511 500.5263
1636.0137 488.64935
1629.5562 474.99182
1643.5182 476.82944
1652.0116 489.80917
1659.6198 499.6528
1670.0167 488.23264
1674.2507 501.09607
1699.3826 549.9487
1710.5988 544.3434
1721.8145 538.386
1731.756 530.2645
1741.4094 521.797
1751.9552 515.2449
1764.3995 507.0666
1767.2273 494.2529
1775.3472 483.0222
1785.3445 473.14648
1799.8804 466.56238
1787.9409 459.1278
1798.5645 449.74786
1803.5286 435.747
1808.727 421.98532
1813.6487 408.3358
1816.4495 394.0394
1819.8398 379.6661
1820.7847 365.09406
1820.5862 349.8674
1821.2666 335.2207
1820.3882 319.97864
1818.2653 305.20276
1815.3195 290.85217
1810.1279 276.09454
1805.2506 260.93835
1796.97 246.39014
1808.2615 236.71056
1816.007 249.61795
1822.1113 264.27167
1827.1069 279.24066
1832.801 294.53894
1834.7927 310.53076
1835.0637 326.48132
1837.1194 342.41913
1835.3304 357.82016
1835.1567 373.96698
1832.1986 389.42014
1829.8352 404.41672
1825.6289 419.307
1820.3508 433.54413
1813.9539 446.9608
1811.942 461.8147
1800.0432 479.75116
1789.4053 488.6146
1780.8762 498.76093
1777.4512 511.8194
1765.1371 520.563
1755.5515 529.88824
1744.7861 537.50616
1734.2102 545.55493
1722.9395 552.893
1711.5721 559.0587
1701.5469 566.37726
1689.9033 572.0862
1689.8478 557.4139
1678.921 562.2461
1678.3218 577.1399
1666.5757 581.1283
1667.5791 565.8445
1656.3923 570.4728
1645.9082 578.50244
1654.8531 585.5821
1641.1588 589.8771
1633.0872 577.31964
1620.9172 577.15674
1609.0535 580.0115
1596.8323 579.8353
1584.8859 581.2993
1572.878 578.6943
1564.5511 586.1876
1557.8972 577.0879
1545.46 577.36584
1533.615 572.7799
1525.6394 581.12225
1519.2455 570.0341
1506.6173 565.9824
1494.095 560.7904
1481.9867 553.9323
1469.6522 547.54407
1457.3798 541.1563
1445.8318 533.4721
1457.1129 499.86398
1472.6198 501.13937
1466.0203 490.73386
1472.9333 480.08563
1480.5797 489.73932
1487.0054 500.8663
1493.9384 490.15244
1501.4851 501.65125
1508.022 491.0
1516.7788 500.7561
1531.796 500.81686
1534.6954 488.1582
1521.6877 489.40622
1500.0093 479.90057
1500.2959 468.13327
1487.1804 476.97302
1476.9553 467.89618
1488.8656 462.71054
1500.75 455.15637
1489.8218 448.9829
1477.4011 455.01337
1479.0739 442.745
1471.7021 434.2926
1467.7455 421.43884
1456.3518 416.81186
1465.8331 407.65308
1465.0852 394.51572
1453.4014 388.38193
1453.1965 374.59723
1452.9225 361.3567
1452.5903 348.06866
1441.0361 354.48407
1440.6863 367.61362
1441.2009 380.44455
1441.3389 393.01022
1453.0757 402.5765
1439.7483 404.77655
1444.3662 414.77988
1438.5958 424.8374
1449.9365 428.33002
1460.3733 432.71945
1465.4478 446.60544
1465.2485 459.6839
1453.0721 456.57996
1452.7097 443.4808
1441.3567 438.2507
1440.702 451.3764
1440.9165 464.81036
1441.9067 478.41562
1452.3296 469.75598
1464.2242 471.70676
1456.8667 482.33008
1447.7039 490.31836
1434.0552 491.05005
1442.31 501.53204
1435.6572 524.1023
1424.5322 515.6011
1426.2266 501.68723
1420.4989 490.34204
1407.9783 490.15735
1397.8177 495.5279
1389.2422 503.97852
1401.46 510.7081
1412.9785 504.75543
1410.6748 521.23364
1421.2178 530.7
1432.0469 539.08026
1443.6715 547.77734
1455.6162 555.06287
1466.879 562.14197
1478.1329 568.20984
1488.8352 573.9524
1500.0743 578.40125
1511.9115 581.9868
1512.643 636.0891
1512.0715 640.35443
1511.8071 645.3909
1507.3657 646.35596
1507.5078 641.4268
1507.4116 636.26184
1495.8224 636.8747
1490.1371 636.1168
1486.7125 639.3651
1482.9945 635.7406
1482.451 641.6313
1487.2832 644.34576
1491.7573 640.9408
1496.1299 642.91956
1491.895 646.48035
1496.1614 648.9198
1496.1027 654.5791
1491.9158 651.9602
1487.4675 649.6289
1482.9338 647.12573
1483.1052 652.528
1483.4175 657.89026
1487.6255 654.93256
1492.073 657.4167
1488.0466 660.1464
1492.2028 662.93774
1488.3655 665.67316
1484.3359 663.0541
1480.7405 666.3471
1479.6221 662.0189
1477.6012 658.25446
1473.2405 656.672
1469.4249 659.64624
1465.9473 662.7308
1468.5092 654.3342
1464.7241 656.8171
1459.9568 656.2667
1455.1921 658.04944
1451.6168 662.0724
1449.3105 667.21606
1437.5492 670.1432
1433.3713 668.41815
1436.0334 664.322
1430.4012 664.667
1432.4481 659.7456
1426.9087 656.25616
1422.6707 660.0392
1427.3081 661.2427
1424.6355 666.10974
1419.7424 664.2309
1420.5793 655.1172
1414.4128 654.9332
1417.2919 659.404
1414.1873 663.76245
1411.5784 659.4999
1407.8499 656.41266
1401.2678 656.37354
1398.4412 660.9435
1397.5187 666.67944
1402.5774 664.7572
1404.5487 660.22186
1408.3499 663.6975
1408.036 674.68146
1402.5729 676.3662
1406.2479 679.097
1410.8741 678.69727
1414.2543 681.34875
1407.8673 683.4543
1402.5344 681.8935
1398.1692 679.1642
1394.9248 682.9909
1398.8225 685.0988
1394.6428 688.2497
1385.6233 694.84125
1384.316 688.78394
1381.8604 682.2351
1377.0326 678.931
1380.4125 676.1111
1375.7039 673.27734
1372.893 667.6223
1377.3884 665.48
1381.8591 662.7094
1384.8923 658.1448
1385.0509 652.4248
1384.7573 646.2749
1379.604 645.68494
1380.0942 640.44415
1374.5082 643.3049
1375.1395 648.8965
1380.2584 651.041
1380.3545 656.8512
1376.1503 660.542
1370.6576 663.00464
1371.2317 658.03723
1375.7284 654.69
1371.0461 652.25433
1369.6931 647.09155
1368.827 641.7378
1373.9489 637.92255
1367.6774 636.38745
1361.4365 636.84314
1362.8257 641.71655
1364.1837 646.62317
1357.7595 646.14124
1356.4471 640.94495
1355.1472 635.97406
1349.9194 638.24713
1344.6123 640.8579
1343.8748 635.0373
1337.5952 637.3475
1339.2833 643.36224
1336.7373 648.5078
1341.759 650.3624
1345.8638 646.6494
1351.3679 644.374
1351.358 650.6645
1346.5083 653.3036
1350.779 657.35645
1352.2786 663.59235
1347.0425 662.6178
1343.3247 657.93964
1338.092 654.9939
1337.4324 661.08826
1341.7802 664.0907
1337.4323 668.3967
1339.2549 674.129
1343.4226 669.3826
1348.9188 668.7155
1345.6863 674.79095
1337.6543 679.2833
1338.5961 684.9042
1338.8158 690.371
1338.6239 695.8668
1338.461 701.34766
1344.752 699.15375
1350.9604 700.7836
1350.871 695.4919
1344.9126 693.03674
1344.9001 686.73236
1343.9546 680.5796
1350.8716 689.8015
1350.7065 684.19336
1350.4104 679.05536
1351.8933 673.80725
1357.9303 673.40424
1362.6014 676.2795
1364.744 672.0951
1361.2606 668.6526
1354.9323 668.81525
1358.4224 664.6575
1364.7715 663.8503
1367.5424 667.8476
1370.455 672.453
1372.2903 677.8394
1367.5499 676.7086
1367.0144 681.70276
1371.8948 683.0717
1376.4749 683.52563
1369.2825 687.36804
1374.7535 688.70886
1379.8383 686.78516
1380.2404 691.6567
1380.5017 696.49945
1375.7734 694.4086
1370.9316 692.76636
1372.3177 698.7418
1376.9431 700.5359
1382.8545 700.5043
1388.0194 700.44824
1395.295 693.22363
1399.4907 690.2851
1403.3518 686.78436
1407.1748 689.0597
1404.3104 692.32495
1400.9125 695.26117
1397.4093 697.7014
1401.8818 700.56604
1407.26 702.21814
1413.7358 704.53876
1411.1345 699.1432
1405.8851 697.3481
1409.4762 693.86786
1414.326 694.68066
1419.1433 693.9635
1416.1702 699.57556
1420.6423 698.97034
1424.3801 695.28143
1422.9149 690.2561
1426.3125 686.43604
1429.5608 682.4148
1433.8423 683.5268
1431.9187 688.0314
1428.0725 691.56805
1429.7351 696.70795
1426.8181 700.0219
1430.7007 703.3708
1434.1707 698.9889
1438.8794 701.1923
1438.1017 695.7121
1433.2068 693.3047
1437.2819 690.6725
1437.5627 686.06854
1437.731 680.5848
1433.1183 678.44543
1428.5413 676.5736
1425.2068 681.14575
1419.9722 680.15076
1416.1919 677.41235
1413.3098 674.06903
1419.4077 674.28735
1423.5764 676.66565
1425.3453 672.2333
1428.7861 669.63586
1432.514 673.294
1437.3964 675.34607
1447.8568 672.3268
1447.3837 677.3652
1446.9998 682.63403
1450.4307 685.55396
1448.8782 689.61127
1451.9448 694.007
1455.4694 697.5173
1457.1632 703.24976
1463.562 701.7322
1468.0917 700.9755
1472.0332 702.91113
1476.029 699.713
1476.4775 695.14075
1478.3573 690.9235
1472.992 691.93964
1471.3289 696.94354
1467.9138 692.1047
1465.8171 696.6667
1460.5145 697.7628
1457.4454 693.1616
1462.5159 692.7482
1464.0374 687.9774
1459.1265 688.27563
1454.0583 689.3227
1455.5255 684.4296
1460.7146 683.22095
1461.2954 677.6962
1461.7856 671.7773
1457.5559 669.26807
1457.2563 674.3832
1456.6279 679.4959
1451.6936 680.7393
1452.304 675.888
1452.8215 671.06335
1454.1542 666.14526
1457.2777 662.5674
1461.7113 660.9757
1461.1152 666.1105
1465.6112 667.5506
1470.5735 665.04205
1474.2258 661.6706
1476.0474 666.0418
1480.1932 670.8474
1483.7395 673.7669
1482.8142 678.52405
1483.4485 683.4241
1479.6566 686.2517
1483.4028 688.74335
1482.7535 693.333
1480.7511 697.1394
1487.3796 691.5609
1486.8395 696.54456
1484.493 700.74945
1489.4382 701.23535
1492.0431 698.14276
1495.9049 701.4009
1496.2378 696.3654
1491.5358 693.80164
1491.6958 688.9784
1487.5334 686.38916
1491.7864 684.0158
1496.0725 681.73193
1496.0359 686.6565
1495.9917 691.57294
1507.4078 685.1767
1507.3917 690.3595
1511.6836 692.5832
1507.3739 695.5258
1507.4624 700.5935
1511.856 697.4862
1512.701 701.92175
1516.8242 699.5107
1521.4702 701.8334
1536.0734 695.0749
1540.2892 699.31177
1545.7155 700.3456
1550.845 701.83594
1549.8533 696.78046
1554.8126 697.7382
1553.5112 693.0831
1548.4927 691.5458
1545.0522 695.5246
1540.7068 694.22095
1543.6761 690.2378
1545.9316 686.009
1541.0508 685.64636
1538.2278 690.051
1533.086 690.87244
1531.3313 686.3153
1535.96 685.69775
1538.6522 680.9724
1543.4023 680.8983
1539.6941 676.04126
1534.0159 680.97705
1529.6976 681.7909
1530.0928 677.1527
1535.0588 676.00977
1536.1919 670.7976
1540.8881 671.1674
1544.206 675.80774
1566.8647 680.65985
1567.72 675.5065
1572.6951 674.5221
1571.8591 679.07227
1576.9246 678.1568
1577.1603 673.5607
1581.4829 675.7295
1581.0051 681.2516
1576.0768 682.7329
1571.0498 683.5976
1570.4279 688.0272
1566.266 686.09564
1562.7668 690.3649
1558.6293 693.63153
1556.0374 702.2189
1561.2783 702.7614
1559.9373 698.30664
1563.8715 695.1472
1565.4409 699.6615
1570.9761 701.3357
1569.3528 696.18286
1567.3892 691.5676
1572.5991 691.96497
1574.6235 695.8271
1577.7424 691.3209
1575.0686 687.33856
1579.9603 686.3627
1588.959 688.28125
1588.1289 693.1711
1591.5164 695.97485
1587.4653 699.341
1592.571 700.74335
1597.7235 701.4142
1602.4814 701.4773
1607.2299 701.7134
1612.087 702.53015
1615.0801 698.92334
1610.3053 697.5111
1605.5758 696.8039
1600.7938 696.5343
1596.0742 696.18665
1593.5967 690.89197
1598.671 691.51337
1603.7839 691.8801
1608.7639 692.4634
1613.016 690.17426
1614.1299 694.4541
1618.1877 691.4331
1619.2593 695.9402
1619.0469 700.83875
1623.5695 698.1857
1623.291 692.70593
1621.5927 687.9337
1627.8186 684.16425
1631.3397 687.2712
1626.1292 688.5083
1629.5277 691.51404
1627.2144 695.2165
1639.7571 700.8222
1645.3318 700.91394
1642.9568 696.72107
1640.2902 693.339
1644.9817 691.0253
1649.2786 687.3623
1649.9894 692.0519
1647.635 695.8686
1650.1372 699.86816
1654.5615 701.3251
1653.5222 695.7606
1654.1289 690.08466
1653.6455 684.8052
1653.7206 679.4188
1654.0793 674.0235
1649.7587 670.88965
1650.2225 665.2716
1645.4136 668.0981
1640.8214 670.9807
1645.1907 673.74664
1649.4573 676.4485
1640.7815 676.6469
1645.0537 679.4296
1649.299 681.9824
1644.9856 685.1134
1640.7676 687.93555
1640.7711 682.3589
1631.8335 682.5864
1631.9496 678.0095
1627.8702 679.2173
1623.873 678.39105
1625.5236 674.103
1629.9353 674.0031
1627.4592 669.72986
1623.8542 665.72205
1618.9043 665.53156
1614.4604 663.02075
1614.2767 667.76184
1609.7937 665.8074
1609.5387 661.25726
1605.0304 664.4896
1600.3505 662.48285
1601.5503 668.10114
1605.8708 669.4814
1610.0164 670.47833
1613.3547 672.82227
1617.8323 670.7201
1622.4373 669.9171
1620.9033 674.43243
1619.8447 679.20276
1623.7534 683.3044
1619.3756 683.6611
1616.593 686.93225
1615.6426 680.7843
1616.5103 675.91724
1611.7822 677.22473
1607.4937 674.6592
1602.5887 673.1859
1597.5264 671.48303
1597.4568 666.584
1592.9385 668.21436
1589.541 664.2826
1594.4497 663.3241
1596.5989 659.17566
1604.972 659.6338
1601.4592 656.9883
1601.2281 651.60803
1595.9098 650.3325
1597.4097 654.67944
1591.5464 659.3281
1592.6134 654.7562
1590.7535 650.0736
1585.7769 649.9231
1587.4563 654.8037
1587.0238 659.64374
1574.6373 661.7843
1570.5051 659.4795
1566.1553 656.31165
1560.7175 656.00507
1562.1882 660.578
1566.6582 661.9264
1571.5859 665.17816
1577.2747 665.8397
1579.8743 670.1403
1574.4419 669.5117
1569.8457 670.63965
1564.9458 670.8484
1567.3013 666.6315
1562.7773 665.7976
1558.281 664.5902
1557.108 659.9978
1555.657 655.4534
1553.3287 663.935
1552.0137 659.34045
1550.4396 654.78577
1546.7639 657.9679
1542.0463 657.46765
1537.9178 660.9053
1542.8315 662.0431
1547.9957 662.50433
1549.0669 666.8856
1545.387 670.82434
1544.1385 666.44165
1539.2797 666.22675
1534.8446 664.7284
1532.1211 668.16504
1531.1704 672.5962
1520.3269 672.0565
1515.9329 674.5234
1511.6044 671.99634
1507.3816 674.7664
1511.6384 677.3019
1515.9889 679.6437
1520.3589 677.11755
1520.3857 682.0513
1520.413 687.0206
1520.4075 691.8258
1520.6611 696.62
1516.1051 694.5846
1515.9646 689.6335
1511.6576 687.4911
1516.0243 684.67725
1511.6829 682.393
1507.3835 680.05145
1496.1697 676.5923
1491.9083 679.0253
1487.5327 681.2827
1487.6787 676.40356
1484.615 668.6249
1488.2673 671.3406
1492.1426 673.9773
1496.2201 671.24524
1492.2281 668.58044
1496.1527 665.77893
1496.1234 660.19806
1507.267 657.6804
1512.013 656.6492
1516.3777 658.1581
1511.6597 661.3463
1507.2928 663.6095
1507.3687 669.27576
1511.6013 666.67847
1515.9355 669.3209
1520.3765 666.92163
1515.985 663.8435
1520.4579 661.85443
1520.8582 656.81934
1521.0724 645.7645
1516.3225 646.8014
1516.476 642.30396
1520.831 640.3856
1517.3219 637.29266
1523.4038 591.2368
1537.5084 588.1213
1551.012 590.78674
1564.0518 595.93896
1577.5021 592.9076
1590.4861 593.9874
1603.1459 592.95685
1616.0054 592.11395
1628.261 590.6859
1640.9567 635.95337
1644.9031 639.33624
1648.7162 636.35913
1654.0793 637.5215
1649.8215 641.60315
1654.1534 644.1284
1653.6838 650.13275
1653.3617 655.6524
1658.4265 659.49615
1662.8093 656.64374
1668.3389 655.70447
1673.3843 657.43976
1678.2366 658.92413
1675.2793 663.00653
1671.3257 666.0316
1670.0627 661.45667
1665.6909 660.416
1661.6295 662.7727
1665.8632 665.96686
1672.2476 673.73645
1676.5962 675.0396
1679.7578 671.2589
1674.9059 669.45306
1678.7545 666.2863
1681.8514 662.5558
1697.2551 659.8989
1702.4761 658.08014
1707.8816 656.9198
1713.1633 657.60156
1710.7831 662.83044
1705.9951 662.95605
1701.2711 664.1733
1696.73 666.4254
1683.5454 667.8794
1684.3909 673.29785
1681.4653 676.35
1683.9509 680.47876
1695.1384 681.8271
1700.3381 683.73413
1698.746 678.47766
1702.7227 675.69135
1704.2866 679.92175
1704.343 687.4306
1706.9515 683.56146
1710.0505 679.6911
1707.6257 675.1028
1712.4177 674.7906
1717.0387 675.02893
1714.9851 680.0305
1720.1423 679.68555
1725.0007 677.70496
1721.7375 674.42676
1725.355 670.6967
1731.3362 670.53595
1730.948 664.99133
1726.5632 666.0116
1721.1793 665.51294
1715.7994 663.4253
1719.2461 659.6937
1717.444 654.8368
1723.9916 656.1369
1724.4468 661.3577
1729.1804 659.34717
1734.3633 661.8523
1735.7886 667.71765
1736.6191 673.3405
1733.1854 676.8661
1728.699 674.7112
1729.4202 680.4343
1736.9795 680.0976
1747.2047 679.82184
1747.518 674.484
1748.4299 669.2099
1751.2812 664.9877
1754.9325 661.57007
1758.9321 658.26355
1764.3721 656.3686
1769.9476 655.7467
1775.651 653.5349
1778.2244 658.6652
1773.4338 659.64294
1771.4768 664.96063
1777.1243 664.17236
1782.2183 666.59485
1782.6985 661.78076
1782.8125 656.78375
1795.1593 664.08484
1795.1719 669.9908
1799.7075 673.12225
1795.0884 675.6107
1795.0015 681.412
1799.6318 678.6818
1803.9758 681.61566
1807.915 684.7397
1809.0563 678.9794
1804.4702 676.00757
1804.0886 670.3421
1807.8689 666.984
1799.5576 667.2693
1803.5444 664.1851
1803.5208 658.0162
1799.3317 661.0242
1795.1724 657.8329
1799.3752 654.6774
1795.1804 651.57605
1799.5155 648.1561
1794.9694 645.40784
1796.3572 640.4242
1794.5569 635.62195
1801.6377 637.1654
1807.9214 636.3445
1807.7739 642.13873
1801.5022 642.3896
1804.5085 646.3492
1808.4587 649.04553
1803.6956 651.9166
1807.911 655.1953
1807.7306 661.1501
1815.2982 669.97394
1818.8447 664.82947
1822.6326 659.81384
1826.3878 655.1206
1833.4042 655.8422
1840.7046 654.6437
1836.3157 660.81506
1831.4797 665.956
1829.3464 660.453
1825.1096 665.1559
1827.1238 670.55206
1821.2615 670.3369
1823.6963 675.95337
1818.4083 675.8065
1813.494 675.6738
1809.0302 673.0194
1814.3413 681.5124
1816.6663 686.6645
1818.9669 691.8662
1824.3826 692.8823
1829.077 696.3652
1828.6104 690.2461
1823.0901 687.10144
1820.0929 681.55945
1825.5461 681.90393
1830.0588 685.58295
1833.652 692.3584
1836.4198 697.4479
1853.6804 690.76917
1863.4835 693.15454
1856.0425 700.21423
1840.4038 701.87646
1832.4604 700.6509
1825.5957 701.3436
1821.9517 697.42426
1808.2297 701.1125
1807.81 695.27
1803.9636 698.2932
1800.7917 702.32715
1795.1174 700.43036
1799.0831 696.8444
1794.8564 694.2311
1798.4393 690.5905
1802.8704 692.9718
1807.4612 690.05145
1803.022 687.4347
1799.1902 684.3918
1794.8254 687.4177
1783.5619 691.1032
1778.495 692.8634
1773.7494 694.3004
1783.1604 696.2726
1783.136 701.421
1778.1936 698.3745
1776.8728 703.6955
1773.0775 700.0454
1768.3157 702.6423
1768.6299 697.1461
1769.3008 691.8176
1764.2224 693.9203
1763.4622 699.4796
1757.946 700.3353
1759.2408 695.24963
1753.728 695.71454
1755.447 691.06165
1760.1672 689.5957
1764.7002 688.6155
1761.2546 683.52655
1756.6986 685.3742
1757.1307 679.76196
1761.1619 676.58075
1761.7367 670.4099
1765.8009 666.5741
1768.1252 660.9344
1763.2104 661.54517
1759.8076 664.80347
1756.0454 667.88513
1752.4675 671.45264
1757.1447 673.6191
1752.4412 676.9192
1752.1348 682.0941
1747.5343 685.42035
1752.1252 687.24524
1749.7734 691.41064
1737.0851 693.7975
1732.6953 695.49677
1737.6218 700.3434
1732.1869 700.2912
1726.4141 701.54565
1727.4486 696.78186
1728.4011 691.5465
1733.1808 689.89307
1737.0288 687.00433
1733.3154 683.6373
1728.835 686.31104
1724.8683 683.02625
1723.4712 688.37103
1723.6206 693.22943
1718.6145 692.9677
1713.8693 695.0028
1721.3274 697.7253
1716.539 699.5552
1712.8141 703.87714
1710.3888 698.9293
1705.9957 701.88153
1700.2449 700.0143
1704.7319 697.00146
1708.6969 693.3322
1703.7832 691.89856
1699.5314 694.19104
1695.7104 696.8168
1694.01 691.84
1698.8391 688.7765
1693.9966 686.592
1683.4971 691.5307
1683.4946 696.57
1684.0674 701.53534
1679.3518 699.46375
1674.9487 701.59094
1670.426 699.86084
1670.7184 694.06384
1674.7664 696.6352
1679.0842 694.1681
1674.9492 691.14246
1670.9495 688.48334
1670.8186 683.24243
1675.2971 685.33813
1679.2535 688.8711
1683.8064 686.3198
1679.9973 683.98706
1678.6093 679.924
1674.32 679.8219
1670.289 677.7747
1669.1785 670.2209
1660.0076 667.18353
1654.6011 668.95746
1656.1165 664.3396
1653.1178 660.9309
1648.9922 659.05975
1645.3293 662.55176
1640.8438 665.3981
1640.644 659.7573
1640.6288 653.82166
1644.8042 656.6089
1649.1346 653.25055
1645.003 650.68665
1649.5269 647.3711
1645.1414 644.8893
1640.6172 642.025
1640.7349 647.9383
1627.8962 648.5836
1627.6323 643.0778
1627.4535 637.63477
1621.8586 636.39185
1616.2346 636.11914
1610.897 636.0568
1607.3684 640.45605
1605.3784 636.08374
1600.7091 637.9966
1597.5552 641.1828
1592.8629 640.75366
1589.1531 645.09796
1594.2798 645.7622
1599.4841 646.49756
1603.1604 642.9408
1604.7004 647.83594
1609.0461 645.38916
1612.6716 640.8461
1614.1698 645.6639
1619.0454 645.7284
1617.9568 640.8246
1623.021 641.3681
1623.531 646.7654
" />
</g></g></svg>
