<?xml version="1.0" encoding="UTF-8" standalone="no"?>
<!-- Created for Inkscape (http://www.inkscape.org/) -->

<svg
   xmlns:dc="http://purl.org/dc/elements/1.1/"
   xmlns:cc="http://creativecommons.org/ns#"
   xmlns:rdf="http://www.w3.org/1999/02/22-rdf-syntax-ns#"
   xmlns:svg="http://www.w3.org/2000/svg"
   xmlns="http://www.w3.org/2000/svg"
   xmlns:sodipodi="http://sodipodi.sourceforge.net/DTD/sodipodi-0.dtd"
   xmlns:inkscape="http://www.inkscape.org/namespaces/inkscape"
   width="3200"
   height="800"
   id="svg2985"
   version="1.1"
   inkscape:version="0.48.1 r9760">
  <defs
     id="defs2987" />
  <sodipodi:namedview
     id="base"
     pagecolor="#ffffff"
     bordercolor="#666666"
     borderopacity="1.0"
     inkscape:pageopacity="0.0"
     inkscape:pageshadow="2"
     inkscape:zoom="0.35"
     inkscape:cx="1600"
     inkscape:cy="400"
     inkscape:document-units="px"
     inkscape:current-layer="layer1"
     showgrid="false"  />
  <metadata
     id="metadata2990">
    <rdf:RDF>
      <cc:Work
         rdf:about="">
        <dc:format>image/svg+xml</dc:format>
        <dc:type
           rdf:resource="http://purl.org/dc/dcmitype/StillImage" />
        <dc:title />
      </cc:Work>
    </rdf:RDF>
  </metadata>
  <g
     inkscape:label="Layer 1"
     inkscape:groupmode="layer"
     id="layer1"> 
     <g>
<path style="fill:none;stroke:black;stroke-width:2px;stroke-linejoin:round;stroke-linecap:round;" d="M 
1638.6425 459.79944
1651.46 463.27853
1662.8657 464.34882
1671.9146 458.2695
1673.4938 468.8071
1674.8992 478.33112
1677.6536 488.17197
1667.7766 486.65442
1663.8918 475.56415
1653.384 474.69794
1641.2502 472.50058
1646.1327 482.5799
1637.9904 489.36154
1634.5826 498.51373
1623.9508 503.89722
1623.5496 491.52133
1619.4481 478.52924
1631.7148 480.77734
1628.2229 468.13828
1615.2925 465.1974
1605.9956 477.14636
1610.5046 489.20505
1610.6951 500.0232
1611.7654 513.8878
1609.7026 525.82654
1620.425 537.59216
1623.54 526.0303
1629.528 516.7565
1637.9512 509.68475
1634.4867 532.29236
1641.7029 541.08044
1639.852 554.15485
1652.5076 555.87317
1662.965 551.8499
1673.3751 549.5667
1681.1705 543.48035
1675.9275 561.3224
1665.1656 564.25024
1670.3469 576.0222
1658.6945 577.3693
1663.0732 587.307
1673.1234 588.91003
1667.1383 598.6812
1657.0071 596.3142
1650.772 586.69226
1645.1548 597.2392
1637.5902 587.01544
1644.8303 576.6254
1655.0172 567.93164
1645.311 564.7629
1635.4103 566.8483
1629.4886 576.41364
1625.252 561.6859
1630.5713 547.3733
1617.0747 550.91925
1608.8882 563.10675
1614.7773 573.7888
1623.9192 591.00214
1620.2599 604.4182
1633.6206 599.80176
1643.0818 609.07794
1654.0117 605.64636
1663.2578 610.12823
1673.3223 606.55505
1672.5646 615.7401
1680.9313 621.1022
1687.1942 626.7329
1690.7356 635.24854
1695.2051 644.77704
1702.8325 634.90704
1697.3817 625.7257
1692.5034 616.2199
1683.0063 610.84863
1679.9191 599.6687
1683.2195 590.6924
1682.2212 580.8551
1681.1152 570.9527
1690.3855 565.05383
1685.9939 554.94617
1693.3113 547.318
1701.6746 543.0719
1708.3228 553.06287
1699.4646 557.77844
1701.5375 569.4465
1694.3025 576.21124
1692.8936 586.0486
1691.8534 596.11914
1691.119 605.1822
1700.6049 607.0848
1710.4292 604.81213
1720.5433 604.65247
1727.2458 596.8642
1732.6759 606.7033
1741.381 596.96106
1743.4111 609.6124
1738.6398 617.9542
1742.875 626.3759
1734.4839 628.80444
1727.2341 623.0731
1724.7742 614.4907
1714.0681 615.2499
1703.7366 616.2477
1707.7468 625.5242
1717.1218 626.872
1725.2288 634.3262
1715.7649 638.4678
1707.7827 644.1702
1705.2013 653.4359
1695.3456 656.6866
1690.0919 666.68115
1678.6204 663.75415
1667.7678 666.18665
1664.7266 655.82227
1668.7864 642.31055
1674.5571 651.0206
1685.3497 653.5085
1682.5471 642.8029
1677.748 634.0315
1672.2588 625.3644
1665.5957 631.8369
1662.5154 621.2407
1652.7905 616.0281
1642.8113 620.6638
1653.0856 627.22644
1657.697 637.3676
1658.8801 648.2467
1650.8186 655.85706
1641.2511 650.9987
1649.254 644.5636
1645.7324 636.0493
1639.0042 630.4895
1628.9202 634.3094
1634.2518 643.4707
1632.4452 657.43427
1624.071 650.9447
1619.459 641.0586
1618.7039 628.3574
1631.1465 622.941
1632.7328 611.30865
1622.7672 616.40344
1610.9983 617.4967
1601.3943 603.7401
1594.5693 579.964
1559.802 587.61755
1544.9089 607.34424
1562.4923 610.7899
1584.4148 615.55725
1598.8165 625.4151
1607.2349 635.6162
1598.6494 646.30237
1585.9784 651.971
1585.6411 636.2352
1569.3059 645.60596
1566.1764 630.18677
1548.5841 632.4616
1532.4049 625.7711
1520.6647 611.24896
1534.052 591.3683
1541.2485 574.6133
1551.4454 561.92053
1538.2234 552.0139
1551.2678 544.96326
1537.5833 534.37195
1551.4053 529.9823
1562.7417 523.18054
1563.6809 538.10315
1575.3087 528.7759
1596.4933 519.4474
1593.7141 504.74707
1596.3163 491.58392
1585.6178 481.09088
1559.4001 462.8841
1558.6637 446.18994
1563.6012 477.34937
1577.6067 499.08395
1582.6787 518.64636
1561.0149 506.8313
1548.8904 514.95703
1538.4822 513.2723
1545.007 497.5598
1557.3616 490.95667
1547.1105 479.20822
1543.3784 463.26465
1523.1138 436.21063
1531.258 399.4541
1510.1663 379.5714
1521.8784 369.01535
1534.4817 381.00897
1546.1265 395.79172
1559.581 391.8076
1568.3418 431.7401
1578.3369 411.04364
1582.6677 391.33505
1565.357 381.2351
1549.7592 379.93097
1569.9055 370.0462
1558.8827 367.9134
1554.2668 355.23926
1549.0145 344.57428
1544.5769 333.50934
1537.1288 323.6239
1531.3973 335.18842
1521.3212 329.60712
1507.522 336.13568
1519.8958 343.00317
1535.3403 345.14865
1540.974 355.75192
1547.0994 366.85007
1535.416 368.31738
1526.2585 354.83167
1509.6708 353.62253
1496.269 345.03717
1487.9114 358.5106
1472.8262 385.55527
1426.8093 426.5124
1429.4294 409.86047
1432.0646 369.58636
1429.1511 354.2152
1414.719 355.97504
1424.1112 337.89703
1425.5563 321.42374
1409.0425 311.23828
1408.475 327.0479
1405.021 342.13315
1395.4216 317.51556
1382.0659 318.8007
1376.611 307.41647
1390.8823 303.36847
1389.6956 287.28156
1403.2803 289.9415
1399.4375 275.0526
1386.6453 273.47885
1374.9137 269.95865
1376.1538 283.53244
1379.0605 295.35333
1362.4753 296.05475
1358.8666 278.5652
1340.4343 283.14032
1345.6865 299.97357
1357.5903 315.93787
1368.1764 333.81696
1391.3792 330.58716
1387.5823 343.23312
1395.7542 354.57736
1399.6542 382.34668
1390.1327 412.2762
1372.5166 393.95264
1376.6171 374.2367
1371.529 356.21567
1345.2781 331.99182
1352.8398 350.5876
1349.3557 374.75085
1344.3599 398.52026
1364.3577 415.45312
1371.4036 436.85358
1342.6981 426.336
1348.1725 450.4566
1361.7717 470.71857
1341.0201 475.3486
1355.6599 495.9409
1372.5326 506.21677
1378.5012 484.62778
1398.7899 492.7517
1398.4629 470.8906
1381.3154 456.97693
1397.3489 434.24106
1409.834 451.03284
1423.9993 462.71948
1418.4236 477.9723
1418.748 496.40924
1439.7502 491.5736
1447.8889 511.02795
1430.9971 509.73114
1425.9396 525.1871
1452.1685 526.7711
1442.4838 532.7292
1438.2777 550.3843
1447.3464 543.5159
1456.8353 539.0337
1467.0963 548.07715
1456.941 552.2226
1447.6198 554.703
1441.3228 561.2644
1432.2014 559.9291
1425.9595 553.0066
1433.2003 541.29834
1420.8954 544.2851
1410.2749 534.05536
1409.4531 514.08606
1390.968 510.2756
1395.1887 530.57855
1378.9703 526.3259
1361.351 522.93835
1344.6821 520.92474
1340.7728 540.74854
1350.1053 557.67065
1335.8057 581.76855
1351.2378 573.4646
1367.5464 562.8239
1383.003 561.43115
1360.2339 542.43677
1378.0911 544.62897
1396.5625 548.6992
1412.6035 554.3679
1419.479 563.13226
1428.4238 568.7397
1436.8549 570.012
1445.4879 569.6503
1453.0195 563.65906
1451.9915 574.8735
1460.9285 571.11725
1463.4932 561.2145
1472.9319 559.8517
1472.116 571.0039
1488.5242 570.2431
1506.4077 596.5174
1492.0228 584.82416
1478.3181 580.51483
1473.0592 589.45447
1466.3905 579.8567
1456.0312 582.06055
1453.6633 591.8014
1462.5613 588.5384
1463.6294 597.27
1480.4613 596.009
1471.5947 601.4433
1471.7976 611.4043
1481.0846 608.55334
1483.8494 620.6252
1475.0103 620.91113
1465.4084 619.6835
1457.7133 622.56494
1462.3555 608.9957
1453.4993 611.7035
1449.8221 620.5793
1443.9839 615.5244
1447.2905 604.3935
1455.3966 601.2023
1445.9054 595.33215
1438.9174 599.79266
1433.7244 606.91833
1440.9121 609.0651
1434.3113 616.3249
1430.0308 624.7395
1425.336 633.06464
1414.1155 633.0986
1419.9238 624.2266
1425.5559 615.1007
1418.6761 605.60645
1416.1154 614.9986
1407.0702 610.37683
1409.8612 601.16626
1402.8387 593.82227
1399.1628 583.8237
1409.2944 585.3365
1420.4589 585.1175
1414.8291 593.3301
1423.2997 595.9153
1426.9403 605.0707
1431.8295 596.22003
1430.175 587.3487
1438.7802 589.1409
1446.9932 585.4006
1442.7097 578.60876
1434.9446 579.2002
1427.1727 578.47656
1420.311 573.2959
1412.6389 575.27545
1402.7477 575.0069
1407.9453 564.25226
1397.0219 566.2405
1391.0583 576.7666
1381.458 580.6251
1370.3628 580.41693
1363.3857 587.9946
1352.3287 588.5565
1342.0159 592.80896
1339.924 604.3175
1347.5795 613.6791
1350.283 602.08014
1359.3997 597.681
1368.5828 602.11725
1378.386 604.7065
1387.8975 608.91736
1388.2723 599.3562
1373.6422 592.5384
1383.0942 591.15344
1392.5275 589.7477
1398.2095 602.7406
1398.2891 613.85175
1408.426 622.46893
1398.0337 625.0525
1387.5481 627.18884
1389.2283 618.01636
1379.428 617.5032
1369.2311 614.29254
1359.1156 609.7619
1359.3068 622.0576
1344.9967 624.193
1342.2812 634.16846
1336.3438 645.1544
1349.7021 643.07275
1345.7333 652.68384
1339.2301 660.68176
1339.7881 671.5476
1341.6084 682.1371
1334.2266 690.8334
1343.5295 697.6064
1348.0076 708.87476
1335.5345 709.05676
1341.383 721.1457
1354.2157 723.0935
1357.6212 714.52515
1369.1902 711.73315
1379.3286 705.7926
1368.0579 722.35046
1381.3857 720.67773
1390.926 712.5857
1396.1025 722.62317
1404.7053 714.42065
1400.4653 704.5107
1390.482 701.3022
1384.5988 692.52136
1373.7444 690.5481
1367.7582 699.25244
1359.483 704.7388
1354.6663 696.1793
1351.0757 685.91016
1362.4261 688.0744
1369.8484 677.9855
1359.8881 676.41
1350.4524 673.98706
1350.4812 663.3929
1361.773 664.80597
1357.458 653.97375
1371.6583 652.7467
1371.7096 637.94275
1361.8442 643.4733
1356.4257 632.8237
1372.9487 626.5763
1382.7881 634.5244
1381.3274 645.1682
1390.0361 650.92816
1381.8342 658.56866
1373.6759 666.4757
1385.1519 670.3009
1380.9615 680.46533
1392.093 681.75934
1397.1091 691.6254
1407.0593 694.91693
1411.283 705.4538
1418.3136 698.6653
1423.6753 708.716
1416.1053 714.91327
1410.6383 723.6863
1423.6326 722.24963
1431.2155 714.78796
1436.1238 722.92834
1447.2678 722.70746
1441.4238 713.2956
1450.6614 711.97723
1457.3584 720.5761
1467.1168 723.9651
1466.5366 713.7358
1459.849 708.57245
1453.5889 701.07654
1444.1709 702.1787
1435.0757 705.3986
1428.0759 699.8369
1425.8823 690.5847
1436.2595 694.3169
1436.1428 684.3134
1435.3428 674.04736
1438.3192 664.0627
1427.4106 662.9159
1425.5217 672.16235
1425.9532 681.496
1417.5007 664.892
1413.3823 655.0051
1404.4419 660.31604
1408.4918 670.28705
1415.8726 677.6164
1415.0061 688.48035
1404.7751 682.46985
1397.7996 671.92596
1393.3997 661.0864
1401.8779 648.7638
1393.069 639.5565
1402.9109 634.86096
1412.9576 643.54065
1425.2676 641.53906
1422.764 651.4843
1432.2141 655.6247
1434.0623 646.8384
1439.221 639.18506
1436.3417 632.14166
1440.4185 624.03894
1448.6047 630.0665
1451.4346 638.81726
1445.9236 645.9437
1442.3992 654.40326
1449.2446 661.6709
1459.1348 662.8283
1468.816 664.17395
1477.8134 663.2585
1464.2097 654.10944
1453.977 651.8876
1461.2139 643.8196
1460.3035 632.822
1469.8989 629.92395
1471.1965 640.2413
1480.6321 631.656
1481.6973 642.78345
1473.0151 651.23846
1482.3514 654.4054
1490.0831 666.2038
1481.9314 673.69196
1472.346 674.9374
1463.3668 674.0521
1454.152 671.5998
1444.9934 671.65485
1446.1587 681.462
1445.9185 691.6352
1455.7682 690.8808
1456.42 681.468
1466.3231 685.61273
1477.5042 684.1515
1473.653 694.2326
1463.4717 697.104
1470.7954 704.594
1481.6843 703.0478
1484.2979 693.0919
1489.8066 682.8185
1496.0039 696.6723
1492.542 708.7545
1483.1682 713.02185
1474.6228 715.65326
1480.0988 723.5725
1491.1375 720.91034
1502.6641 721.7483
1505.5518 710.09546
1518.7157 722.82837
1563.3926 724.5192
1586.9996 701.8224
1591.0891 718.7062
1607.0653 721.73364
1623.7992 721.6102
1641.3253 723.12915
1654.7102 720.92645
1651.006 709.6967
1636.2485 713.9769
1623.8192 706.973
1625.2125 694.42566
1608.635 708.8368
1606.5836 695.6274
1616.3801 685.13
1599.5627 678.7175
1601.4927 660.4431
1610.639 650.4142
1617.8894 660.7995
1616.8108 672.83484
1630.5132 668.71466
1630.593 680.65924
1637.9946 702.13885
1639.186 689.0526
1644.8004 676.31165
1642.4855 664.3921
1655.1312 665.6031
1660.2659 675.9998
1653.6865 685.7698
1649.1555 696.73206
1660.3356 699.34607
1667.1471 687.63007
1673.9299 676.96484
1685.667 677.59735
1699.195 676.39246
1702.9592 666.33325
1712.1826 661.3168
1721.925 662.6294
1727.9783 670.6732
1738.8724 665.18054
1744.1611 657.26514
1738.0088 649.2832
1730.9325 656.95056
1718.0496 651.10767
1726.9594 645.3396
1735.4951 638.1483
1745.7483 633.38934
1743.4135 641.5267
1748.6221 648.3393
1754.8451 654.54956
1752.5902 663.8819
1747.1112 671.7519
1737.6976 676.08545
1728.9365 682.0699
1718.9109 684.9152
1714.26 673.49005
1707.427 685.12616
1716.8159 697.522
1726.1831 708.5023
1713.684 709.5258
1700.8081 710.0288
1689.1085 712.68726
1691.5859 699.374
1704.4971 697.50146
1694.2921 687.57764
1680.8447 690.2427
1671.8083 699.69574
1680.3801 705.7675
1666.2771 711.5731
1667.4817 723.0049
1679.5494 720.1467
1694.356 722.5635
1707.8597 721.15234
1720.2733 720.47314
1731.9343 721.4551
1738.6561 712.7199
1736.7334 701.4619
1727.5535 695.3357
1736.621 689.51855
1744.3748 683.3695
1752.7131 680.969
1757.6519 673.9169
1763.2411 667.99316
1763.343 659.96265
1764.6289 651.2802
1758.856 645.06177
1752.8656 639.28937
1754.6483 630.3434
1762.1755 626.4064
1763.7094 636.7184
1770.6082 643.99365
1777.5828 637.1072
1779.9587 648.6601
1773.0137 655.55347
1773.6978 665.59753
1779.7549 674.5023
1769.5756 674.7636
1772.8865 683.7572
1763.229 682.7086
1755.8025 689.7472
1746.5745 694.29144
1747.6515 705.3542
1751.5542 715.80994
1745.0363 723.1365
1760.8125 722.3771
1775.172 722.55225
1790.6313 724.3195
1784.1328 716.81445
1777.0496 709.0407
1769.1746 702.75037
1768.3477 714.5708
1759.6226 709.4609
1757.2078 699.81384
1765.416 693.028
1774.9211 693.49646
1782.2029 685.9421
1789.3867 679.144
1787.8198 668.7012
1782.5084 660.28424
1789.5448 652.5982
1795.5737 644.80994
1786.9407 641.32385
1787.22 631.40045
1780.2473 625.01294
1771.0146 630.2224
1770.6974 619.83215
1778.2781 613.91626
1789.1592 617.2682
1794.5768 624.4276
1797.6974 634.4595
1804.7859 642.4409
1811.9275 650.54126
1801.7881 653.0773
1794.532 661.1506
1798.3982 671.81915
1797.9023 682.7883
1801.7609 691.10034
1790.7643 691.6821
1782.4364 698.40125
1787.1772 706.52344
1796.1292 701.81445
1795.6597 713.1686
1802.5515 721.5447
1813.9966 721.10095
1821.4247 710.49
1825.8687 721.31616
1838.3702 722.4602
1849.6365 719.4678
1853.9146 709.0553
1863.7351 724.4762
1865.3108 712.50635
1863.6099 700.4226
1862.602 689.6169
1865.5436 679.38306
1858.0088 674.0415
1853.9067 665.9856
1864.3566 666.1221
1861.5269 656.7459
1864.4225 647.5648
1858.0375 641.4724
1853.4911 634.66125
1850.9597 626.4645
1846.4203 619.1195
1838.2109 615.7115
1835.5769 605.22363
1824.7451 603.0738
1815.0474 594.5709
1809.8093 583.3439
1814.231 568.76196
1827.3157 573.8701
1833.4546 586.7429
1845.7585 593.7537
1847.8474 608.20386
1855.6809 616.1637
1861.2242 627.5466
1865.4056 635.90265
1865.8131 619.59814
1863.1213 609.3634
1862.1326 594.88416
1856.3883 581.6361
1862.0195 567.7655
1859.7306 550.8437
1847.2473 538.7206
1830.0544 536.2593
1838.2366 553.83844
1844.1575 568.6366
1821.8821 554.91943
1810.3274 543.601
1802.7922 557.04663
1799.0988 570.5917
1790.6766 546.70886
1797.7716 532.4923
1781.5835 528.6941
1792.7749 516.53784
1808.1466 514.9057
1815.3416 528.8137
1829.1586 516.63477
1817.2751 501.70013
1828.7402 490.01474
1810.2068 482.99594
1798.4548 497.17218
1782.3062 506.26245
1770.6062 496.18414
1767.6024 485.5666
1756.9585 479.19946
1738.6385 488.6887
1753.2235 493.12903
1765.2507 505.6655
1768.7831 516.99835
1763.5613 528.63696
1756.2427 520.1771
1747.9358 532.0809
1737.4357 526.942
1726.1738 524.70593
1715.4717 525.01996
1720.6925 535.4997
1731.8347 537.2627
1741.8558 543.548
1755.0593 548.1129
1757.8448 538.0808
1772.3682 541.1211
1777.1868 553.30945
1786.1167 564.2051
1783.6133 578.7645
1771.7131 578.45874
1770.938 567.499
1761.6 570.5497
1759.2463 581.6942
1766.6434 591.0917
1776.7498 588.9907
1788.321 590.68225
1794.9626 582.8602
1800.7126 592.2873
1805.0051 601.84467
1813.7457 606.41113
1820.3734 614.8331
1829.1565 614.9868
1816.936 624.84216
1821.2054 633.8629
1828.2476 625.9186
1838.209 626.20026
1842.908 633.3151
1839.1926 640.70966
1847.7626 642.4209
1854.0806 649.35284
1850.977 657.52954
1844.1606 651.6118
1836.6902 657.6194
1828.6985 662.2067
1820.8513 667.4801
1827.8167 674.7833
1836.4446 669.28094
1844.2426 663.87024
1846.5013 674.8804
1853.456 683.4208
1844.4203 688.8816
1852.4954 696.2731
1843.3099 703.834
1835.2642 712.6974
1831.6028 702.86487
1835.0762 692.46814
1836.9084 680.5581
1825.6824 685.8786
1823.4678 696.374
1815.1866 701.65497
1807.384 710.55756
1806.074 699.40686
1813.2609 689.30945
1817.7358 678.8463
1806.962 679.4358
1811.0555 670.3916
1804.3397 663.0375
1813.395 660.2147
1821.236 655.21594
1828.9277 650.5307
1835.9448 647.5071
1830.9158 636.99817
1822.3989 644.4081
1814.0662 640.63403
1809.0071 632.28876
1803.9684 623.926
1809.9341 616.2981
1799.6163 612.30237
1793.7173 601.8374
1785.8291 607.9232
1781.9498 598.5643
1773.1001 602.57355
1761.6077 601.6089
1766.44 610.376
1760.3561 617.9812
1750.172 620.8412
1754.0757 611.22644
1750.2814 602.094
1755.4904 593.0761
1747.6857 587.5204
1739.1798 581.25
1733.3353 588.6124
1722.0598 585.5868
1714.14 593.41895
1702.7395 596.52655
1703.2008 585.75574
1710.1699 579.58606
1710.7559 566.78467
1717.5553 558.8834
1726.8047 564.1533
1719.8894 573.9759
1730.737 575.555
1740.206 567.3085
1747.425 577.25977
1751.5546 570.0991
1753.4563 561.01105
1762.5571 557.3017
1745.5535 554.72845
1735.4355 556.8611
1728.8401 549.3674
1719.6124 547.7221
1711.7024 542.27295
1708.1705 533.4291
1704.6233 524.0833
1697.3374 532.3977
1688.5896 536.5748
1676.093 532.901
1664.4949 539.2791
1652.6475 543.8098
1650.6759 530.65106
1640.5488 522.56647
1648.5381 515.6123
1658.6471 519.78076
1664.019 528.43427
1672.0747 521.24805
1686.2798 526.16565
1695.0552 521.3142
1687.8204 514.0228
1680.174 517.72815
1678.0681 507.4732
1668.1111 510.9162
1657.7255 508.62167
1647.5917 503.12054
1649.6824 493.43683
1657.7186 486.24652
1661.2621 498.01337
1671.5923 497.77844
1681.918 497.28442
1688.5801 503.974
1696.0063 508.72418
1702.2648 514.06586
1711.4634 514.9635
1721.7056 513.3656
1733.4226 514.4546
1744.9674 517.5387
1753.5237 507.43298
1742.2311 502.98108
1730.751 502.99765
1726.206 493.9613
1721.9955 485.82867
1708.7832 486.86267
1712.9467 476.00046
1703.0433 478.26727
1693.9556 475.7099
1697.616 486.9548
1711.8391 495.22723
1718.1058 503.27332
1707.3805 505.32275
1700.5077 498.46472
1692.2297 495.34552
1687.6526 488.17102
1684.9878 480.11142
1684.6702 470.9238
1682.2261 462.02975
1693.9397 464.0311
1702.678 467.27985
1711.3511 464.40906
1701.5516 453.20883
1699.5352 439.82858
1707.4014 431.06415
1711.6039 443.84448
1714.7002 454.71765
1722.8289 465.9043
1723.4329 476.42163
1733.7308 474.5221
1745.6985 476.07703
1741.7732 462.613
1728.8741 457.3863
1724.9817 445.68573
1738.6399 448.17548
1747.5751 437.8559
1759.7318 432.50946
1764.56 447.30942
1752.033 452.2721
1758.2194 464.99146
1772.2897 459.42694
1772.5616 473.27264
1783.2621 487.0033
1793.5476 474.64035
1790.3464 457.9088
1780.2725 446.38522
1772.7109 435.79114
1772.9917 422.94113
1772.6729 409.04868
1763.3727 403.8886
1759.5298 392.0412
1753.1907 381.38815
1759.2979 370.84067
1772.0731 367.75427
1783.542 364.0136
1796.5195 367.90735
1799.1143 382.36395
1787.1743 388.44553
1783.2488 377.1948
1770.3892 380.8197
1772.5078 392.50766
1781.4246 398.5571
1783.906 413.2824
1787.186 431.81598
1793.9683 418.95233
1793.3396 402.84628
1804.9436 396.02466
1809.8435 412.02988
1808.0803 428.9792
1803.8583 444.52582
1808.0913 462.3939
1824.1902 470.20203
1824.6113 451.89056
1825.493 435.40918
1826.9324 418.64935
1825.1011 401.40704
1845.5903 427.4116
1844.074 443.1115
1843.9309 459.12842
1841.0479 475.15692
1849.3386 489.07687
1841.8647 504.1743
1847.801 521.3336
1864.5262 530.3355
1862.074 507.51266
1866.8662 486.2437
1860.9951 466.74554
1862.9078 444.92004
1864.9517 422.52362
1863.9045 400.18344
1845.5187 410.67526
1842.8591 394.71616
1855.6035 381.7655
1865.6019 367.92767
1851.3286 355.7979
1865.4545 344.60944
1847.837 335.74716
1861.2534 322.08395
1845.5724 314.92462
1827.8677 314.79993
1829.7393 329.99985
1833.9358 347.8503
1838.0386 366.74072
1833.2983 381.32724
1817.6404 386.541
1814.7206 371.22766
1820.5033 357.86084
1804.7518 353.2883
1795.7866 341.4541
1790.3683 353.3181
1774.843 353.51074
1762.3856 357.9261
1763.5365 346.42395
1771.6747 339.4412
1782.6656 344.05026
1786.7189 333.6095
1776.9725 329.19995
1774.0088 319.22833
1785.9302 321.00684
1783.1157 311.56763
1771.1592 309.47855
1769.1724 298.80936
1777.2762 292.73398
1779.0195 302.75052
1787.573 298.66623
1792.9221 308.18005
1798.9221 316.6543
1795.3403 326.67676
1803.4279 333.06592
1816.4623 341.12253
1809.8713 323.22638
1810.5562 311.90536
1803.999 305.43274
1798.4678 297.404
1809.4343 295.70016
1822.0878 301.42175
1827.2864 287.28598
1840.4008 296.75128
1859.3455 298.85342
1867.0325 278.13495
1853.2557 277.25836
1838.6106 275.5656
1842.2017 256.63223
1859.1516 257.0461
1861.3583 238.84409
1847.1978 232.18854
1833.3517 241.52945
1817.3296 235.94504
1810.1274 223.78549
1819.7092 210.70172
1802.8069 209.84647
1810.8796 195.90018
1795.7021 194.94298
1792.4873 179.13963
1799.408 162.05196
1815.6976 165.94382
1806.8574 178.93964
1821.6442 185.68076
1830.9833 175.62547
1838.5217 161.68503
1847.7722 175.00749
1844.2023 191.56595
1830.6042 200.0534
1831.2267 222.5719
1845.3828 211.37755
1862.7954 218.94609
1861.3585 200.6568
1862.6466 184.31564
1863.6506 167.76874
1865.64 149.77335
1852.0579 155.59488
1826.3469 154.65994
1841.455 143.78569
1841.0566 126.75066
1858.3827 136.0409
1861.0901 120.31274
1846.4836 111.0913
1867.7639 102.95565
1864.7495 81.172516
1852.8169 69.235916
1862.0876 55.734818
1848.2083 44.711052
1838.6207 59.814537
1828.0582 43.89775
1808.8274 46.481804
1799.999 59.16581
1809.758 76.230225
1820.054 61.482414
1829.7344 76.85243
1845.4365 82.77564
1852.977 96.43596
1834.9897 95.50795
1828.5917 110.23784
1821.2065 123.2351
1825.6544 137.81616
1812.0476 148.0875
1797.8795 145.0462
1787.7249 133.77945
1783.013 119.18727
1789.6758 103.61212
1797.8065 118.643814
1806.9138 131.07388
1810.0547 108.63248
1818.9104 92.855064
1802.1226 91.4522
1789.8467 70.67079
1784.6383 47.289795
1773.3834 59.21998
1772.0912 76.964096
1786.8926 86.613365
1772.261 94.87669
1771.2831 110.08171
1755.1792 101.52273
1756.01 84.851425
1757.0792 66.41786
1760.4512 44.066784
1735.1162 42.41387
1744.2017 56.421448
1739.3757 74.94389
1722.2206 81.463425
1708.2273 66.27156
1725.6718 61.036087
1713.7113 46.945618
1696.0027 48.259132
1690.6611 65.72661
1703.0444 83.4886
1713.5178 98.0076
1725.894 102.628685
1738.9966 92.95004
1738.869 109.886894
1744.8219 121.8966
1756.7727 116.49872
1770.1543 127.52151
1755.6917 130.80766
1745.8286 132.63678
1749.1648 142.20633
1759.9374 141.61862
1773.9445 142.4049
1784.9497 152.00412
1783.6677 166.89272
1769.2922 169.091
1770.9073 158.6239
1762.7233 152.04631
1757.8806 161.6511
1752.3975 150.9358
1746.8604 158.19586
1747.6158 168.08365
1741.852 176.44394
1759.1528 171.50299
1753.213 178.55486
1746.9204 185.596
1747.442 195.02171
1737.3503 187.87253
1735.3032 197.61386
1724.736 196.34036
1726.0491 187.42564
1731.5586 179.54588
1734.1326 169.8693
1737.4177 161.14886
1739.2461 150.8272
1739.6033 141.40703
1729.933 142.41678
1728.2043 152.56325
1726.6733 162.48842
1723.8037 173.25955
1717.5803 181.52487
1713.4655 190.96684
1715.677 202.39792
1704.706 203.08096
1705.8673 215.3947
1717.0505 213.90758
1727.1991 217.22241
1727.4485 206.05064
1736.2139 210.3203
1742.9033 204.63715
1752.6575 203.58305
1752.2871 212.13239
1745.637 216.68347
1736.7925 219.294
1742.9497 225.89336
1741.62 234.1878
1741.4502 243.31601
1748.2731 249.9425
1736.7686 253.89542
1746.2795 259.50122
1753.992 266.90683
1757.8933 256.59116
1756.4789 245.8573
1751.8978 237.11258
1751.6232 227.04901
1757.7397 220.2887
1761.8508 230.46165
1764.1576 240.70099
1772.888 235.91098
1772.5227 226.74052
1767.8989 218.71887
1762.1389 210.32086
1768.5974 203.65463
1770.2104 191.82407
1760.1296 198.2237
1757.8694 188.728
1765.5621 181.12018
1776.1068 177.83353
1780.5928 187.32304
1784.8872 196.98216
1777.637 201.70737
1776.5653 211.77884
1788.8389 208.77324
1792.5999 220.94098
1781.3942 220.28014
1783.5961 231.31644
1795.6367 232.66339
1799.6326 244.04668
1800.0342 256.94507
1813.6567 250.29398
1826.2278 257.93158
1822.4 272.47784
1808.9617 265.04675
1806.4395 276.0754
1812.1721 285.1187
1801.5232 286.19278
1792.3623 289.7459
1784.6938 285.5506
1776.2146 282.30664
1767.0608 287.01257
1770.9368 274.96054
1777.1825 265.9284
1784.0682 273.8109
1793.8308 278.3197
1797.8054 268.78748
1788.7788 263.18643
1780.0303 254.92352
1790.5492 251.77899
1786.9141 241.81616
1776.6177 244.80444
1767.5496 250.33066
1769.3738 259.3831
1764.0632 267.31674
1760.0078 277.61484
1757.5208 289.42914
1751.1503 284.87775
1748.1907 276.16348
1741.4966 268.72702
1731.3888 264.52954
1734.2896 278.988
1723.2128 272.69818
1712.4127 276.78943
1701.7468 272.6325
1691.6063 268.16986
1680.4059 266.39865
1689.4172 280.6112
1700.3684 285.40887
1711.2108 289.1834
1706.0901 300.63287
1705.1718 313.03177
1716.939 310.8147
1717.4463 321.12054
1717.0323 331.20828
1725.9438 337.59796
1735.4807 342.4819
1743.052 333.17688
1739.1991 320.9249
1728.6207 326.2002
1729.0021 311.31653
1719.9923 299.3974
1723.4282 286.28735
1732.1648 295.17957
1741.6729 288.46445
1738.459 304.5173
1745.7847 312.08414
1749.2067 299.21347
1759.8812 297.4838
1760.4481 306.6532
1754.4731 313.56488
1752.9822 324.97815
1763.2123 318.14606
1765.3751 328.6829
1757.5195 336.23373
1749.4524 345.73376
1738.112 355.13437
1725.1576 350.8764
1719.7714 362.52023
1731.1454 367.87714
1749.272 360.05176
1743.3833 370.43585
1738.7722 382.0741
1746.0518 394.1482
1733.4668 395.56763
1738.7914 409.08655
1751.058 406.91464
1760.5864 417.8457
1747.6831 422.671
1734.9913 423.18527
1733.505 434.6648
1720.1572 434.04224
1718.4967 422.65808
1726.369 414.70764
1724.9536 403.71347
1713.0273 409.3545
1705.8445 418.48352
1695.8214 424.5791
1695.8446 411.24323
1703.3989 399.82578
1708.845 385.07928
1716.339 394.85242
1725.2511 384.59653
1718.1785 375.067
1707.6201 368.38757
1696.9082 365.95837
1688.6232 372.3846
1698.0598 380.0526
1694.0062 391.56308
1687.9546 401.59454
1681.2737 411.076
1684.1091 421.43658
1688.1042 433.08078
1679.0029 439.45312
1689.7488 444.94232
1690.197 455.12378
1680.2637 451.42
1670.8618 447.37677
1661.524 452.0366
1648.823 449.9913
1635.3892 433.73105
1636.0249 446.14905
1625.2819 454.61566
1611.9573 449.12244
1621.9202 440.41962
1624.6531 428.08344
1613.2197 426.5422
1620.7421 414.53745
1611.3967 405.99976
1610.8131 389.54016
1610.0186 374.73154
1622.3761 386.93048
1621.8444 399.96335
1633.6504 406.85645
1634.0508 419.27783
1645.6843 423.61755
1646.9963 410.01093
1643.512 399.16583
1633.521 393.2141
1633.2723 380.974
1634.6376 368.6594
1622.294 374.77936
1624.1663 363.48718
1632.4398 349.4018
1632.1106 338.24625
1642.2047 338.2638
1648.807 348.4262
1638.2025 356.6546
1648.6274 362.0216
1658.1394 370.20554
1645.8738 374.5329
1644.708 386.87628
1656.745 382.69427
1668.9827 379.75604
1666.6235 391.2672
1654.8518 395.6828
1660.3262 406.11606
1656.3706 417.7346
1659.7949 428.45847
1647.7378 435.69122
1657.7788 440.61133
1667.5656 437.45966
1674.1199 427.99265
1669.1636 417.21115
1671.9395 403.31073
1678.6023 393.3291
1683.4795 383.91962
1677.5588 373.5625
1668.5382 364.9852
1659.8572 355.73822
1664.9087 344.53842
1662.492 333.06473
1653.7352 338.17108
1649.1255 327.6195
1638.9329 324.27264
1629.4236 328.17743
1613.6279 328.1492
1620.8617 335.23572
1621.0498 345.18234
1618.4807 354.42944
1608.8444 340.93628
1602.3992 353.20636
1609.1738 362.67758
1590.0522 372.4256
1577.1523 362.3224
1578.94 346.77032
1566.2523 354.9464
1562.4589 341.78052
1570.5742 331.89636
1567.8055 319.4485
1557.1013 330.57922
1551.4421 319.25296
1555.0927 304.36035
1539.7253 302.33307
1547.5272 284.2356
1559.9539 272.84155
1575.5828 278.18457
1590.2244 272.71912
1590.03 286.8496
1578.7592 294.98676
1563.7483 290.61688
1569.0879 305.98688
1581.8737 310.5982
1584.1655 323.77014
1581.472 335.51895
1594.5854 336.31293
1600.9172 326.37466
1596.27 314.53336
1592.9716 300.9276
1610.59 316.65192
1607.094 304.5854
1603.952 291.99066
1602.5968 278.63147
1602.157 263.38373
1613.8131 273.44543
1616.981 262.6301
1609.9958 250.8356
1623.2635 253.01721
1633.5964 262.22626
1627.8456 270.5977
1625.3674 280.78918
1615.1462 285.8567
1630.5964 290.3036
1641.987 292.34222
1634.3221 301.62158
1619.6749 296.46786
1621.427 307.80353
1623.7958 319.6511
1632.6858 312.9544
1642.7194 312.91086
1651.8833 316.34174
1659.6335 322.34753
1668.7266 324.04456
1677.4406 321.7471
1686.3534 325.42252
1684.0099 335.84186
1673.8293 334.20676
1678.7903 346.09592
1672.6003 354.23785
1679.96 362.82916
1687.776 356.49164
1690.9718 346.2721
1700.1235 356.16394
1711.2374 354.1278
1714.9613 342.53094
1702.5149 344.42438
1694.5698 334.9864
1706.173 334.06464
1707.1013 323.76105
1697.4656 325.56317
1694.1322 316.56073
1693.9016 305.68124
1693.0876 294.55023
1681.0723 290.9557
1680.6874 302.78232
1683.7251 313.31836
1671.2432 312.132
1661.259 309.9378
1669.8938 297.9756
1659.6077 298.3297
1648.9275 303.66843
1652.0837 291.53033
1660.4373 284.65613
1670.1404 285.06332
1678.4589 278.19254
1668.1709 271.7674
1670.044 259.5598
1659.4084 261.5655
1656.481 272.38477
1648.871 280.73978
1637.5923 279.54523
1643.9348 269.65863
1647.3486 259.21957
1637.281 252.02019
1639.6941 239.42789
1632.6692 230.69638
1622.3032 224.3106
1628.4236 242.98138
1618.0991 237.5163
1604.7004 238.4057
1608.6272 225.70831
1597.7152 217.1177
1592.1764 231.84033
1579.1083 221.12682
1591.9216 205.20103
1579.3032 199.39304
1567.0979 207.10875
1553.428 199.4678
1561.1694 223.50517
1564.1677 240.56487
1579.0933 242.59808
1594.9668 249.31595
1584.5061 260.12207
1569.4456 259.10516
1550.8582 258.36972
1544.5896 239.81815
1540.5198 218.54077
1532.0588 196.61597
1552.2247 181.03069
1567.5422 185.81448
1578.8694 178.28223
1588.2557 188.09277
1600.5391 192.29355
1607.3262 202.33713
1614.0565 212.99612
1625.6824 206.52177
1631.3009 215.58281
1641.3888 221.21677
1647.845 229.79868
1656.7742 237.88412
1647.6826 245.28012
1655.9197 251.17607
1665.6643 247.21402
1677.8981 252.63773
1689.0455 255.97234
1701.1843 259.02823
1713.0889 263.77408
1722.5846 256.34467
1728.4158 246.97281
1730.5148 237.05571
1732.6848 227.5412
1721.8472 227.64584
1711.7378 226.53049
1701.2264 230.5288
1707.6677 239.06448
1718.7737 240.2673
1710.9939 250.71234
1697.8566 245.79266
1686.2852 243.4359
1675.2961 241.18561
1667.585 232.87775
1659.5122 225.4148
1669.5212 217.97385
1660.1765 206.43164
1654.2507 215.85645
1643.6433 209.46512
1635.6581 199.34769
1619.9603 197.22034
1615.1128 186.34448
1623.812 175.56772
1628.9406 187.54546
1640.7272 187.36722
1651.1028 185.60062
1660.8118 180.9367
1648.8215 198.6419
1660.0464 194.09271
1671.0756 201.68976
1679.3916 210.67754
1684.3289 220.69318
1678.4976 229.85678
1690.5405 232.84433
1695.9539 220.67949
1692.8386 209.38367
1694.6626 196.9998
1702.4825 189.18173
1690.5228 184.95805
1683.7291 199.47758
1679.1155 188.69188
1669.5171 187.45634
1682.7311 174.60497
1671.2756 173.87674
1664.4424 160.63243
1671.319 149.47273
1676.2292 161.2096
1686.786 160.7202
1683.8182 146.58197
1695.1342 144.26178
1707.3447 143.77733
1706.5006 153.71616
1696.4971 156.44724
1705.4028 164.67249
1694.77 171.41391
1704.2942 178.53763
1712.58 173.09467
1716.7102 165.55344
1716.9534 157.27686
1717.3103 148.607
1720.3561 140.36513
1713.4486 133.45679
1703.1674 134.32716
1694.1549 131.85884
1684.7849 131.00381
1676.7705 135.70456
1666.769 138.00195
1654.6039 122.40236
1656.0382 132.90704
1659.3047 145.31958
1647.7793 142.24034
1641.1108 152.55087
1654.0098 154.83119
1646.1453 163.46393
1658.254 169.85129
1647.5085 174.69371
1636.1208 175.06659
1632.5924 163.52725
1629.4872 151.62463
1618.7114 150.10538
1620.019 162.73987
1611.8534 171.445
1604.2206 180.52946
1593.6597 174.491
1602.0642 164.65805
1591.0891 159.55222
1583.0958 166.29843
1571.294 165.9134
1578.3217 153.8558
1588.6152 148.65097
1580.5865 141.8846
1571.6099 140.0321
1560.8823 142.39313
1555.4928 132.15092
1565.6033 130.73694
1570.8005 122.55316
1579.3555 117.40362
1588.5209 120.272064
1590.9033 128.67792
1579.4916 129.87741
1589.4844 137.47543
1598.744 142.72432
1600.0696 151.94583
1609.7875 155.45236
1610.5488 141.51273
1620.1123 131.26924
1609.478 129.94463
1600.7119 133.85666
1599.648 123.94255
1598.0017 114.57067
1597.8447 105.0439
1588.4906 110.0166
1579.0033 105.9366
1570.1316 110.9274
1561.7269 105.61461
1551.9056 107.44943
1560.2695 118.240776
1550.3044 122.45388
1543.5718 114.63622
1532.2628 115.37454
1519.4829 113.03021
1512.2062 121.09897
1524.086 124.47185
1528.9835 134.63548
1537.1376 125.50262
1544.7654 132.88582
1537.4761 141.25464
1549.2462 143.45377
1555.0852 154.33597
1567.2925 152.81996
1560.262 167.25824
1545.9695 165.6841
1541.1433 153.70103
1529.4314 149.82744
1521.0415 142.47366
1513.8035 133.2127
1502.2803 127.402214
1499.5995 138.45984
1509.405 146.38266
1517.61 154.81242
1528.6611 164.0456
1536.5559 176.68448
1519.4619 179.03519
1510.3274 164.12596
1502.5295 177.94885
1485.3687 175.48509
1483.4106 157.3562
1495.0898 164.8428
1500.0833 153.5994
1489.7899 145.04839
1479.1105 145.50294
1473.0005 164.94714
1469.0269 153.79768
1458.8539 146.87993
1452.4844 154.8555
1460.457 162.97157
1447.3828 166.54822
1456.371 174.11388
1467.4052 176.00784
1457.1196 185.557
1446.7933 179.9011
1446.3577 192.27261
1453.8953 198.38983
1436.6666 196.77281
1437.0026 185.82178
1435.8308 175.24747
1423.6658 168.27457
1425.8765 187.88248
1429.8386 203.3216
1443.8392 207.24075
1434.1204 213.83861
1441.0872 222.89185
1427.4768 224.50877
1433.4047 234.87302
1429.9282 247.42621
1419.4402 236.9726
1405.6067 247.78
1419.8118 255.47281
1428.5259 263.89944
1428.8173 278.8108
1428.2576 305.7088
1422.3041 291.16812
1414.6648 274.76828
1405.7076 261.33475
1393.3326 260.70236
1378.9513 258.1534
1373.014 243.83057
1360.8464 258.22458
1344.6099 266.5125
1340.95 249.25293
1357.1206 239.6109
1342.1096 227.46143
1346.7268 206.85257
1341.9172 188.23279
1368.1328 195.27574
1359.2168 179.40906
1361.0684 158.47978
1341.8263 165.19662
1346.253 142.65314
1343.2079 119.43698
1361.2963 126.24987
1370.9487 141.29025
1384.7354 153.2518
1376.2327 168.58401
1384.7595 181.20987
1394.0316 195.34213
1392.7427 208.7474
1375.7034 210.7346
1360.4741 220.25774
1376.242 229.92966
1390.4318 246.00565
1399.2465 234.4993
1398.8967 221.79538
1413.1455 223.15556
1420.9773 212.55676
1407.9258 208.65912
1419.4456 199.07292
1408.8234 190.83249
1414.6625 176.23087
1402.0316 180.0574
1398.5785 166.36497
1411.7797 160.30103
1416.1375 145.56006
1401.885 147.06862
1390.4094 133.69699
1379.5889 117.20657
1377.8422 97.06762
1359.5796 105.18231
1341.4398 94.738464
1339.4658 71.925415
1337.574 42.803844
1363.8153 43.21084
1387.5026 44.82693
1411.7201 44.455837
1400.9912 62.855583
1377.0065 63.718475
1355.5669 60.44335
1362.1346 82.142456
1388.4437 80.53375
1398.4297 99.76982
1400.1954 117.444565
1413.8838 126.16708
1419.6162 105.60965
1435.9662 118.49225
1437.4042 130.78337
1425.9385 135.02109
1428.8259 146.57184
1424.5496 156.11636
1435.5815 162.0007
1441.938 152.88345
1438.3278 142.20395
1448.0825 139.74638
1457.5253 135.63396
1468.8833 140.23851
1476.5813 130.7109
1488.3132 132.5604
1492.6846 120.873375
1503.1078 113.63376
1490.8335 107.154236
1487.0537 94.130646
1477.4199 105.794426
1481.1946 118.43135
1463.175 104.71722
1468.4775 117.379906
1463.5536 127.301315
1449.7183 125.256065
1453.0034 113.39754
1440.5935 102.12883
1451.2079 86.61726
1471.4146 91.13796
1465.4766 72.919586
1446.4006 65.32484
1430.9321 85.441826
1410.858 83.45357
1423.7885 64.75629
1435.528 45.415356
1459.0543 45.32361
1475.4141 56.48077
1485.6074 73.67926
1501.6006 79.27524
1512.8396 86.46338
1500.7717 96.36023
1511.102 103.672195
1519.506 96.01773
1527.3761 105.280846
1530.8794 93.2009
1525.0605 80.427155
1517.9298 64.09324
1499.3481 57.600296
1487.3506 41.38726
1514.8177 43.559006
1536.0057 48.252693
1535.5889 69.43123
1538.8969 84.16731
1539.0186 103.08184
1546.8586 95.68539
1559.0039 93.714714
1568.9282 96.54045
1551.3184 85.00116
1549.6924 74.04173
1551.5736 60.786438
1557.7672 45.93698
1570.99 60.312134
1564.876 70.482925
1562.5536 81.41889
1573.1912 84.611206
1578.6788 74.30066
1582.7332 63.408676
1577.9609 45.653687
1594.2385 46.79
1606.8616 38.854824
1610.8688 53.434685
1603.02 62.375053
1592.386 59.368404
1594.6237 70.893814
1607.158 72.18463
1616.4663 77.76741
1621.4248 85.859314
1630.7178 80.86995
1637.2251 89.02999
1628.2529 94.81527
1617.6703 94.4218
1609.2347 88.84673
1603.7678 80.514114
1590.182 79.309296
1584.6238 87.59027
1578.539 95.75485
1589.0527 98.565445
1596.4895 87.82706
1600.2468 96.1882
1609.6208 99.98796
1607.5249 108.67955
1607.7249 118.4421
1616.2104 122.25213
1617.4507 112.168236
1620.1525 103.18559
1625.5916 119.552475
1632.0834 128.30933
1623.9537 140.10559
1635.7103 140.12906
1643.8535 130.50238
1644.1053 119.32461
1635.3102 115.61453
1628.7488 107.843506
1637.0383 101.20986
1644.9583 107.35127
1655.0713 111.04132
1664.9431 116.12836
1667.3088 127.0305
1675.6559 120.06372
1685.6785 118.49165
1695.7205 119.72588
1706.4739 122.90506
1717.9661 123.44091
1725.5688 130.91501
1735.7616 132.13112
1733.3704 122.117455
1725.9329 115.36305
1714.5161 111.7941
1703.1022 110.5339
1700.9341 99.14235
1690.4629 106.67726
1678.7191 107.3896
1667.3076 105.14143
1676.7094 94.95132
1689.477 93.91854
1684.1445 81.04006
1671.427 69.575836
1667.7378 83.16164
1664.7257 93.61742
1655.5781 99.83716
1646.3843 93.958824
1654.5776 85.979126
1643.8776 79.67528
1655.6705 73.62107
1645.9355 67.088684
1635.1934 70.396805
1624.7488 71.219444
1614.9043 65.61444
1624.6033 59.42021
1625.3081 45.204987
1636.9481 57.196285
1643.935 45.499245
1661.4674 42.801247
1679.4502 43.65673
1675.0886 56.18975
1656.9862 57.67531
" />
</g></g></svg>
